g obj_demonworld_store4_glow
v 0.4858725 3.550187 -0.791693
v -3.493261 3.550188 -0.7916923
v -3.493261 2.432051 -0.7916933
v 0.4858719 2.432051 -0.791693
v -3.542403 6.813216 -0.6286215
v -3.542403 5.465171 -0.6286209
v -2.393409 5.465172 -0.6286207
v -2.393409 6.813215 -0.6286234
v -2.393408 4.094566 -0.6286216
v -2.393409 5.465172 -0.6286207
v -3.542403 5.465171 -0.6286209
v -3.542403 4.094565 -0.6286224
v -3.621819 4.094568 -0.5496092
v -3.621819 5.465171 -0.5496092
v -3.621334 5.465174 2.285097
v -3.621333 4.094569 2.285096
v -3.621819 5.465171 -0.5496092
v -3.621819 6.813216 -0.5496067
v -3.621333 6.813219 2.285096
v -3.621334 5.465174 2.285097
v -3.542403 4.094565 -0.6286224
v -3.542403 5.465171 -0.6286209
v -3.621819 5.465171 -0.5496092
v -3.621819 4.094568 -0.5496092
v -3.542403 5.465171 -0.6286209
v -3.542403 6.813216 -0.6286215
v -3.621819 6.813216 -0.5496067
v -3.621819 5.465171 -0.5496092
v -1.933142 6.648407 -0.7891182
v -1.93314 3.816737 -0.7891185
v 0.3389047 3.816739 -0.7891189
v 0.3389053 6.648402 -0.7891186
v -2.285348 2.076266 -0.5312116
v -2.285349 0.251761 -0.5312123
v -1.485178 0.2517604 -0.5312129
v -1.485177 2.076264 -0.5312127
v -0.7112332 2.076264 -0.5312127
v -1.485177 2.076264 -0.5312127
v -1.485177 0.2517604 -0.5312129
v -0.7112332 0.2517604 -0.5312129
v -0.3988513 0.2292976 -0.5218278
v 0.1412161 0.2292976 -0.5218292
v 0.1412161 2.076266 -0.5218295
v -0.3988513 2.076266 -0.5218283
v -3.258932 2.076265 -0.5218295
v -3.161674 0.2292972 -0.5218292
v -2.605394 0.2292976 -0.5218278
v -2.605394 2.076266 -0.5218283
vt 0.5785701 0.4330459
vt 0.7938271 0.4330459
vt 0.7938271 0.3844286
vt 0.5785701 0.3844286
vt 0.9066526 0.9968474
vt 0.9066526 0.9303811
vt 0.7807072 0.9303811
vt 0.7807072 0.9968474
vt 0.8226994 0.9303811
vt 0.8226994 0.9968474
vt 0.9486448 0.9968474
vt 0.9486448 0.9303811
vt 0.9488149 0.9303811
vt 0.9488149 0.9968474
vt 0.8228695 0.9968474
vt 0.8228695 0.9303811
vt 0.9066526 0.9303811
vt 0.9066526 0.9968474
vt 0.7807072 0.9968474
vt 0.7807072 0.9303811
vt 0.8227383 0.9303811
vt 0.8227383 0.9968474
vt 0.9062065 0.9968474
vt 0.9062065 0.9303811
vt 0.9486676 0.9303811
vt 0.9486676 0.9968474
vt 0.8651994 0.9968474
vt 0.8651994 0.9303811
vt 0.6882057 0.9087424
vt 0.6882057 0.6125715
vt 0.5898533 0.6125715
vt 0.5898533 0.9087424
vt 0.9286687 0.9172417
vt 0.9286687 0.8400468
vt 0.8951169 0.8400468
vt 0.8951169 0.9172417
vt 0.8948402 0.9172417
vt 0.8612883 0.9172417
vt 0.8612883 0.8400468
vt 0.8948402 0.8400468
vt 0.9303519 0.7112446
vt 0.8612958 0.7112445
vt 0.8612958 0.8354558
vt 0.9303519 0.8354558
vt 0.8612958 0.8354558
vt 0.8612958 0.7112445
vt 0.9303519 0.7112446
vt 0.9303519 0.8354558
vn 0 4.093988E-07 -1
vn 0 4.093988E-07 -1
vn 0 4.093988E-07 -1
vn 0 4.093988E-07 -1
vn -7.304072E-07 -1.188517E-06 -1
vn -1.660018E-07 -1.489424E-07 -1
vn -1.660025E-07 -1.489437E-07 -1
vn -7.304072E-07 -1.188517E-06 -1
vn 3.98403E-07 8.906305E-07 -1
vn -1.660025E-07 -1.489437E-07 -1
vn -1.660018E-07 -1.489424E-07 -1
vn 3.98403E-07 8.906304E-07 -1
vn -0.9234223 0 -0.3837855
vn -0.9234241 2.597614E-07 -0.383781
vn -1 0 0.0001713361
vn -1 -2.226963E-07 0.0001713899
vn -0.9234241 2.597614E-07 -0.383781
vn -0.9234249 4.265427E-07 -0.383779
vn -1 2.263015E-07 0.0001712823
vn -1 0 0.0001713361
vn -0.705301 3.944034E-07 -0.7089078
vn -0.7053031 4.779032E-07 -0.7089059
vn -0.9234241 2.597614E-07 -0.383781
vn -0.9234223 0 -0.3837855
vn -0.7053031 4.779032E-07 -0.7089059
vn -0.7053052 5.614031E-07 -0.7089038
vn -0.9234249 4.265427E-07 -0.383779
vn -0.9234241 2.597614E-07 -0.383781
vn -2.014764E-07 1.077725E-07 -1
vn -2.014764E-07 1.077725E-07 -1
vn -2.014764E-07 1.077725E-07 -1
vn -2.014764E-07 1.077725E-07 -1
vn -1.144165E-06 2.50898E-07 -1
vn -1.144165E-06 2.50898E-07 -1
vn -1.144165E-06 2.50898E-07 -1
vn -1.144165E-06 2.50898E-07 -1
vn 0 0 -1
vn 0 0 -1
vn 0 0 -1
vn 0 0 -1
vn -2.401546E-06 -2.065383E-07 -1
vn -2.401546E-06 -2.065383E-07 -1
vn -2.401546E-06 -2.065383E-07 -1
vn -2.401546E-06 -2.065383E-07 -1
vn 2.144116E-06 -1.500855E-07 -1
vn 2.144116E-06 -1.500855E-07 -1
vn 2.144116E-06 -1.500855E-07 -1
vn 2.144116E-06 -1.500855E-07 -1
g obj_demonworld_store4_glow_0
f 3/3/3 2/2/2 1/1/1
f 4/4/4 3/3/3 1/1/1
f 7/7/7 6/6/6 5/5/5
f 8/8/8 7/7/7 5/5/5
f 11/11/11 10/10/10 9/9/9
f 12/12/12 11/11/11 9/9/9
f 15/15/15 14/14/14 13/13/13
f 16/16/16 15/15/15 13/13/13
f 19/19/19 18/18/18 17/17/17
f 20/20/20 19/19/19 17/17/17
f 23/23/23 22/22/22 21/21/21
f 24/24/24 23/23/23 21/21/21
f 27/27/27 26/26/26 25/25/25
f 28/28/28 27/27/27 25/25/25
f 31/31/31 30/30/30 29/29/29
f 32/32/32 31/31/31 29/29/29
f 35/35/35 34/34/34 33/33/33
f 36/36/36 35/35/35 33/33/33
f 39/39/39 38/38/38 37/37/37
f 40/40/40 39/39/39 37/37/37
f 43/43/43 42/42/42 41/41/41
f 44/44/44 43/43/43 41/41/41
f 47/47/47 46/46/46 45/45/45
f 48/48/48 47/47/47 45/45/45
