g obj_demonworld_store3_glow
v 0.3925281 0.2191876 -0.5928198
v 0.3925256 1.614122 -0.592821
v -0.0612439 1.614121 -0.5928207
v -0.05990356 0.2191864 -0.5928198
v -3.944742 0.2191876 -0.5928097
v -3.944742 1.614122 -0.5928119
v -4.398513 1.614121 -0.592811
v -4.397173 0.2191858 -0.59281
v -2.802558 0.2746503 -0.1370596
v -1.202753 0.2746503 -0.1370596
v -1.202754 2.092012 -0.1370587
v -2.80256 2.092012 -0.1370584
v 0.3777441 0.6264496 0.436993
v 0.3777441 0.6264465 1.148349
v 0.3777429 1.131744 1.148349
v 0.3777429 1.131747 0.4369924
v 0.3777441 0.6264468 1.785874
v 0.3777454 0.6264434 2.497228
v 0.3777429 1.131741 2.497232
v 0.3777429 1.131745 1.785874
v -4.553102 1.558398 1.249652
v -4.553099 1.558396 1.713592
v -4.553101 1.372464 1.712318
v -4.553103 1.372466 1.249652
v 0.5549805 1.558397 1.715732
v 0.5549816 1.558396 1.251787
v 0.5549829 1.372465 1.253061
v 0.5549816 1.372466 1.715732
v -4.601732 2.839766 2.539883
v -4.601732 2.839768 1.828527
v -4.601731 3.345065 1.828528
v -4.601731 3.345064 2.539885
v 0.6187744 2.848443 0.4796466
v 0.6187744 2.848442 1.191002
v 0.6187732 3.35374 1.191002
v 0.6187732 3.353741 0.479646
v 0.6187744 2.848443 1.828527
v 0.6187756 2.848441 2.539883
v 0.6187732 3.353739 2.539886
v 0.6187732 3.353741 1.828528
v -0.5967835 3.615342 -0.6173847
v 0.06331543 3.615341 -0.6173847
v 0.06331543 4.037881 -0.6173836
v -0.5967835 4.037883 -0.6173836
v -3.797362 0.3065307 -0.1365542
v -3.435415 0.3065277 -0.1365542
v -3.435415 1.762195 -0.1365527
v -3.797362 1.762199 -0.1365527
v -4.601732 2.839766 1.200976
v -4.601732 2.839767 0.4896194
v -4.601731 3.345065 0.4896201
v -4.601731 3.345063 1.200977
v -4.378929 0.6323724 2.493078
v -4.378929 0.6323767 1.781723
v -4.378928 1.137674 1.781723
v -4.378928 1.13767 2.493081
v -4.378929 0.6323742 1.154171
v -4.378929 0.6323779 0.4428154
v -4.378928 1.137676 0.442816
v -4.378928 1.137672 1.154173
v 0.5174499 3.479589 -0.8301968
v -0.7881506 2.222213 -0.8301983
v 0.5174499 2.222213 -0.8301971
v -0.7881506 3.47959 -0.8301968
v -1.999797 2.222213 -0.8301971
v -1.999797 3.47959 -0.8301968
v -3.22623 2.222213 -0.8301983
v -3.22623 3.47959 -0.8301962
v -4.531831 2.222213 -0.8301983
v -4.53183 3.47959 -0.8301962
v -1.274747 3.615342 -0.6173847
v -0.6653748 3.615341 -0.6173847
v -0.6653748 4.037883 -0.6173836
v -1.274747 4.037884 -0.6173836
v -1.965179 3.615342 -0.6173847
v -1.355807 3.615341 -0.6173847
v -1.355807 3.887695 -0.617384
v -1.965179 3.887696 -0.617384
v -2.627028 3.615342 -0.6173847
v -2.017655 3.615341 -0.6173847
v -2.017655 3.663184 -0.6173846
v -2.627028 3.663186 -0.6173846
v -3.319249 3.615342 -0.6173847
v -2.709877 3.615341 -0.6173847
v -2.709877 4.03788 -0.6173836
v -3.319249 4.037882 -0.6173836
v -4.024637 3.615342 -0.6173847
v -3.415265 3.615341 -0.6173847
v -3.415265 4.037881 -0.6173836
v -4.024637 4.037883 -0.6173836
v -0.602478 0.3065307 -0.1365542
v -0.240531 0.3065277 -0.1365542
v -0.240531 1.762195 -0.1365527
v -0.602478 1.762199 -0.1365527
v -3.940416 3.962449 3.719654
v -3.940417 3.434098 3.719654
v -4.42959 3.434098 3.719654
v -4.42959 3.962449 3.719655
v -3.254095 3.962449 3.719654
v -3.254097 3.434098 3.719654
v -3.743269 3.434098 3.719654
v -3.743269 3.962449 3.719655
vt 0.868304 0.01427164
vt 0.868304 0.1535919
vt 0.7940222 0.1535919
vt 0.7940222 0.01427164
vt 0.868304 0.1548744
vt 0.868304 0.2941947
vt 0.7940222 0.2941947
vt 0.7940222 0.1548744
vt 0.860913 0.8407389
vt 0.9303131 0.8407389
vt 0.9303131 0.9166379
vt 0.860913 0.9166379
vt 0.860913 0.8407389
vt 0.9303131 0.8407389
vt 0.9303131 0.8843808
vt 0.860913 0.8843808
vt 0.860913 0.8407389
vt 0.9303131 0.8407389
vt 0.9303131 0.8843808
vt 0.860913 0.8843808
vt 0.934662 0.738134
vt 0.9979774 0.7381338
vt 0.9977906 0.7120484
vt 0.934662 0.7120485
vt 0.934662 0.8626013
vt 0.9979774 0.8626011
vt 0.9977906 0.8365156
vt 0.934662 0.8365158
vt 0.860913 0.8407389
vt 0.9303131 0.8407389
vt 0.9303131 0.8843808
vt 0.860913 0.8843808
vt 0.860913 0.8407389
vt 0.9303131 0.8407389
vt 0.9303131 0.8843808
vt 0.860913 0.8843808
vt 0.860913 0.8407389
vt 0.9303131 0.8407389
vt 0.9303131 0.8843808
vt 0.860913 0.8843808
vt 0.860913 0.8407389
vt 0.9303131 0.8407389
vt 0.9303131 0.8843808
vt 0.860913 0.8843808
vt 0.860913 0.8407389
vt 0.9303131 0.8407389
vt 0.9303131 0.8843808
vt 0.860913 0.8843808
vt 0.860913 0.8407389
vt 0.9303131 0.8407389
vt 0.9303131 0.8843808
vt 0.860913 0.8843808
vt 0.860913 0.8407389
vt 0.9303131 0.8407389
vt 0.9303131 0.8843808
vt 0.860913 0.8843808
vt 0.860913 0.8407389
vt 0.9303131 0.8407389
vt 0.9303131 0.8843808
vt 0.860913 0.8843808
vt 0.5792155 0.04501753
vt 0.6327628 0.001663598
vt 0.5792158 0.001663122
vt 0.6327623 0.0450178
vt 0.6824643 0.001664199
vt 0.6824636 0.0450184
vt 0.7327719 0.001664801
vt 0.7327714 0.045019
vt 0.7863187 0.001665076
vt 0.7863184 0.04501951
vt 0.860913 0.8407389
vt 0.9303131 0.8407389
vt 0.9303131 0.8843808
vt 0.860913 0.8843808
vt 0.860913 0.8407389
vt 0.9303131 0.8407389
vt 0.9303131 0.8843808
vt 0.860913 0.8843808
vt 0.860913 0.8407389
vt 0.9303131 0.8407389
vt 0.9303131 0.8843808
vt 0.860913 0.8843808
vt 0.860913 0.8407389
vt 0.9303131 0.8407389
vt 0.9303131 0.8843808
vt 0.860913 0.8843808
vt 0.860913 0.8407389
vt 0.9303131 0.8407389
vt 0.9303131 0.8843808
vt 0.860913 0.8843808
vt 0.860913 0.8407389
vt 0.9303131 0.8407389
vt 0.9303131 0.8843808
vt 0.860913 0.8843808
vt 0.7808495 0.9247682
vt 0.7808495 0.8259413
vt 0.8554288 0.8259413
vt 0.8554288 0.9247682
vt 0.7808495 0.9247682
vt 0.7808495 0.8259413
vt 0.8554288 0.8259413
vt 0.8554288 0.9247682
vn -3.367619E-07 -7.65872E-07 -1
vn -3.367618E-07 -7.65872E-07 -1
vn -3.367618E-07 -7.65872E-07 -1
vn -3.367619E-07 -7.65872E-07 -1
vn -6.73524E-07 -1.094195E-06 -1
vn -6.73524E-07 -1.094195E-06 -1
vn -6.73524E-07 -1.094195E-06 -1
vn -6.73524E-07 -1.094195E-06 -1
vn 0 5.877285E-07 -1
vn 0 5.877285E-07 -1
vn 0 5.877285E-07 -1
vn 0 5.877285E-07 -1
vn 1 2.41581E-06 0
vn 1 2.41581E-06 0
vn 1 2.41581E-06 0
vn 1 2.41581E-06 0
vn 1 3.623719E-06 -8.579932E-07
vn 1 3.623719E-06 -8.579931E-07
vn 1 3.623719E-06 -8.579931E-07
vn 1 3.623719E-06 -8.579931E-07
vn -1 6.547273E-06 5.269589E-06
vn -1 6.547274E-06 5.26959E-06
vn -1 6.547273E-06 5.26959E-06
vn -1 6.547273E-06 5.26959E-06
vn 1 6.574365E-06 2.634739E-06
vn 1 6.574365E-06 2.634739E-06
vn 1 6.574365E-06 2.634739E-06
vn 1 6.574365E-06 2.634739E-06
vn -1 2.41581E-06 0
vn -1 2.41581E-06 0
vn -1 2.41581E-06 0
vn -1 2.41581E-06 0
vn 1 2.415809E-06 0
vn 1 2.415809E-06 0
vn 1 2.415809E-06 0
vn 1 2.415809E-06 0
vn 1 3.623717E-06 -8.579997E-07
vn 1 3.623717E-06 -8.579997E-07
vn 1 3.623717E-06 -8.579997E-07
vn 1 3.623717E-06 -8.579997E-07
vn 0 2.708404E-06 -1
vn 0 2.708404E-06 -1
vn 0 2.708404E-06 -1
vn 0 2.708404E-06 -1
vn 0 1.061336E-06 -1
vn 0 1.061336E-06 -1
vn 0 1.061336E-06 -1
vn 0 1.061336E-06 -1
vn -1 2.41581E-06 0
vn -1 2.41581E-06 0
vn -1 2.41581E-06 0
vn -1 2.41581E-06 0
vn -1 2.41581E-06 0
vn -1 2.41581E-06 0
vn -1 2.41581E-06 0
vn -1 2.41581E-06 0
vn -1 2.415809E-06 0
vn -1 2.415809E-06 0
vn -1 2.415809E-06 0
vn -1 2.415809E-06 0
vn 4.674872E-07 7.281247E-07 -1
vn 0 7.281247E-07 -1
vn 4.674872E-07 7.281247E-07 -1
vn 0 7.281247E-07 -1
vn -1.274526E-07 8.494788E-07 -1
vn -1.274526E-07 8.494787E-07 -1
vn 1.244163E-07 1.334895E-06 -1
vn 1.244163E-07 1.334895E-06 -1
vn 0 1.698958E-06 -1
vn 0 1.698958E-06 -1
vn 0 2.663254E-06 -1
vn 0 2.663254E-06 -1
vn 0 2.663254E-06 -1
vn 0 2.663254E-06 -1
vn 0 2.661219E-06 -1
vn 0 2.661219E-06 -1
vn 0 2.661219E-06 -1
vn 0 2.661219E-06 -1
vn 0 2.790672E-06 -1
vn 0 2.790672E-06 -1
vn 0 2.790672E-06 -1
vn 0 2.790672E-06 -1
vn 0 2.66327E-06 -1
vn 0 2.66327E-06 -1
vn 0 2.66327E-06 -1
vn 0 2.66327E-06 -1
vn 0 2.663264E-06 -1
vn 0 2.663264E-06 -1
vn 0 2.663264E-06 -1
vn 0 2.663264E-06 -1
vn 0 1.061336E-06 -1
vn 0 1.061336E-06 -1
vn 0 1.061336E-06 -1
vn 0 1.061336E-06 -1
vn 1.247721E-06 -1.155202E-06 1
vn 1.247721E-06 -1.155201E-06 1
vn 1.247721E-06 -1.155201E-06 1
vn 1.247721E-06 -1.155201E-06 1
vn 1.247721E-06 -1.155202E-06 1
vn 1.247721E-06 -1.155201E-06 1
vn 1.247721E-06 -1.155201E-06 1
vn 1.247721E-06 -1.155201E-06 1
g obj_demonworld_store3_glow_0
f 3/3/3 2/2/2 1/1/1
f 4/4/4 3/3/3 1/1/1
f 7/7/7 6/6/6 5/5/5
f 8/8/8 7/7/7 5/5/5
f 11/11/11 10/10/10 9/9/9
f 12/12/12 11/11/11 9/9/9
f 15/15/15 14/14/14 13/13/13
f 16/16/16 15/15/15 13/13/13
f 19/19/19 18/18/18 17/17/17
f 20/20/20 19/19/19 17/17/17
f 23/23/23 22/22/22 21/21/21
f 24/24/24 23/23/23 21/21/21
f 27/27/27 26/26/26 25/25/25
f 28/28/28 27/27/27 25/25/25
f 31/31/31 30/30/30 29/29/29
f 32/32/32 31/31/31 29/29/29
f 35/35/35 34/34/34 33/33/33
f 36/36/36 35/35/35 33/33/33
f 39/39/39 38/38/38 37/37/37
f 40/40/40 39/39/39 37/37/37
f 43/43/43 42/42/42 41/41/41
f 44/44/44 43/43/43 41/41/41
f 47/47/47 46/46/46 45/45/45
f 48/48/48 47/47/47 45/45/45
f 51/51/51 50/50/50 49/49/49
f 52/52/52 51/51/51 49/49/49
f 55/55/55 54/54/54 53/53/53
f 56/56/56 55/55/55 53/53/53
f 59/59/59 58/58/58 57/57/57
f 60/60/60 59/59/59 57/57/57
f 63/63/63 62/62/62 61/61/61
f 62/62/62 64/64/64 61/61/61
f 62/62/62 65/65/65 64/64/64
f 65/65/65 66/66/66 64/64/64
f 65/65/65 67/67/67 66/66/66
f 67/67/67 68/68/68 66/66/66
f 68/68/68 67/67/67 69/69/69
f 70/70/70 68/68/68 69/69/69
f 73/73/73 72/72/72 71/71/71
f 74/74/74 73/73/73 71/71/71
f 77/77/77 76/76/76 75/75/75
f 78/78/78 77/77/77 75/75/75
f 81/81/81 80/80/80 79/79/79
f 82/82/82 81/81/81 79/79/79
f 85/85/85 84/84/84 83/83/83
f 86/86/86 85/85/85 83/83/83
f 89/89/89 88/88/88 87/87/87
f 90/90/90 89/89/89 87/87/87
f 93/93/93 92/92/92 91/91/91
f 94/94/94 93/93/93 91/91/91
f 97/97/97 96/96/96 95/95/95
f 98/98/98 97/97/97 95/95/95
f 101/101/101 100/100/100 99/99/99
f 102/102/102 101/101/101 99/99/99
