g [gimmick]demonworld_metro_door
v 0.3910372 -1.466293E-07 1.5
v -1.391037 -1.466293E-07 1.5
v 0.4999999 7.679673E-09 -0.3910371
v -1.5 7.679673E-09 -0.3910371
v 0.3706167 0.01225455 1.476031
v -1.476031 0.01225454 1.370568
v 0.4760309 0.01225469 -0.3705685
v -1.370617 0.01225468 -0.4760308
v 0.4999999 -1.574873E-07 1.391037
v -1.5 -1.586794E-07 1.391037
v 0.3910372 -1.986209E-09 -0.4999997
v -1.391037 -1.986209E-09 -0.4999997
v 0.4760309 0.01225454 1.370568
v -1.370617 0.01225455 1.476031
v 0.3706167 0.01225468 -0.4760308
v -1.476031 0.01225469 -0.3705685
v 0.2910114 0.01071645 1.370881
v -1.291011 0.01071645 1.370881
v -1.370882 0.01071643 1.2895
v -1.370882 0.01071653 -0.2894997
v -1.291011 0.01071652 -0.3708815
v 0.2910111 0.01071652 -0.3708815
v 0.3708822 0.01071653 -0.2894997
v 0.3708816 0.01071643 1.2895
v 0.3072791 0.01225505 1.405999
v 0.277973 0.02595195 1.37217
v -1.277973 0.02595195 1.37217
v -1.307279 0.01225505 1.405999
v -1.405999 0.01225504 1.307279
v -1.37217 0.02595191 1.27793
v -1.37217 0.02595206 -0.2779301
v -1.405999 0.01225519 -0.3072791
v -1.307279 0.01225518 -0.405999
v -1.277973 0.02595207 -0.37217
v 0.277973 0.02595207 -0.37217
v 0.3072791 0.01225518 -0.405999
v 0.4059991 0.01225519 -0.3072791
v 0.3721702 0.02595206 -0.2779301
v 0.3721702 0.02595191 1.27793
v 0.4059991 0.01225504 1.307279
v 0.2068388 0.02441383 1.27821
v -1.206839 0.02441383 1.27821
v -1.27821 0.02441382 1.205488
v -1.27821 0.02441391 -0.2054879
v -1.206839 0.02441388 -0.2782097
v 0.2068385 0.02441388 -0.2782097
v 0.2782104 0.02441391 -0.2054879
v 0.2782097 0.02441382 1.205488
v 0.1899184 0.01207818 1.220748
v -1.189918 0.01207818 1.220748
v -1.220748 0.01207818 1.187741
v -1.220748 0.01207834 -0.1877415
v -1.189919 0.01207834 -0.220748
v 0.1899181 0.01207834 -0.220748
v 0.2207482 0.01207833 -0.1877415
v 0.2207482 0.01207819 1.187741
v -1.391037 -1.466293E-07 1.5
v -1.5 -1.586794E-07 1.391037
v -1.476031 0.01225454 1.370568
v -1.370617 0.01225455 1.476031
v 0.3706167 0.01225455 1.476031
v 0.4760309 0.01225454 1.370568
v 0.4999999 -1.574873E-07 1.391037
v 0.3910372 -1.466293E-07 1.5
v -1.5 7.679673E-09 -0.3910371
v -1.391037 -1.986209E-09 -0.4999997
v -1.370617 0.01225468 -0.4760308
v -1.476031 0.01225469 -0.3705685
v 0.3910372 -1.986209E-09 -0.4999997
v 0.4999999 7.679673E-09 -0.3910371
v 0.4760309 0.01225469 -0.3705685
v 0.3706167 0.01225468 -0.4760308
v 0.3706167 0.01225455 1.476031
v -1.370617 0.01225455 1.476031
v -1.370617 0.01225455 1.476031
v -1.476031 0.01225454 1.370568
v -1.291011 0.01071645 1.370881
v -1.476031 0.01225454 1.370568
v -1.476031 0.01225469 -0.3705685
v -1.476031 0.01225469 -0.3705685
v -1.370617 0.01225468 -0.4760308
v -1.370617 0.01225468 -0.4760308
v 0.3706167 0.01225468 -0.4760308
v -1.291011 0.01071652 -0.3708815
v 0.3706167 0.01225468 -0.4760308
v 0.4760309 0.01225469 -0.3705685
v 0.2910111 0.01071652 -0.3708815
v 0.4760309 0.01225469 -0.3705685
v 0.4760309 0.01225454 1.370568
v 0.4760309 0.01225454 1.370568
v 0.3706167 0.01225455 1.476031
v 0.2910114 0.01071645 1.370881
v -1.307279 0.01225505 1.405999
v -1.405999 0.01225504 1.307279
v -1.37217 0.02595191 1.27793
v -1.277973 0.02595195 1.37217
v 0.277973 0.02595195 1.37217
v 0.3721702 0.02595191 1.27793
v 0.4059991 0.01225504 1.307279
v 0.3072791 0.01225505 1.405999
v -1.405999 0.01225519 -0.3072791
v -1.307279 0.01225518 -0.405999
v -1.277973 0.02595207 -0.37217
v -1.37217 0.02595206 -0.2779301
v 0.3072791 0.01225518 -0.405999
v 0.4059991 0.01225519 -0.3072791
v 0.3721702 0.02595206 -0.2779301
v 0.277973 0.02595207 -0.37217
v 0.277973 0.02595195 1.37217
v -1.277973 0.02595195 1.37217
v -1.277973 0.02595195 1.37217
v -1.37217 0.02595191 1.27793
v -1.206839 0.02441383 1.27821
v -1.37217 0.02595191 1.27793
v -1.37217 0.02595206 -0.2779301
v -1.37217 0.02595206 -0.2779301
v -1.277973 0.02595207 -0.37217
v -1.277973 0.02595207 -0.37217
v 0.277973 0.02595207 -0.37217
v -1.206839 0.02441388 -0.2782097
v 0.277973 0.02595207 -0.37217
v 0.3721702 0.02595206 -0.2779301
v 0.2068385 0.02441388 -0.2782097
v 0.3721702 0.02595206 -0.2779301
v 0.3721702 0.02595191 1.27793
v 0.3721702 0.02595191 1.27793
v 0.277973 0.02595195 1.37217
v 0.2068388 0.02441383 1.27821
v 0.2068388 0.02441383 1.27821
v -1.206839 0.02441383 1.27821
v -1.27821 0.02441382 1.205488
v -1.27821 0.02441391 -0.2054879
v -1.206839 0.02441388 -0.2782097
v -1.206839 0.02441388 -0.2782097
v 0.2068385 0.02441388 -0.2782097
v -1.189919 0.01207834 -0.220748
v 0.2782104 0.02441391 -0.2054879
v 0.2782097 0.02441382 1.205488
v 0.2068388 0.02441383 1.27821
v 0.1899184 0.01207818 1.220748
vt 0.05633754 0.6695197
vt 0.05633754 0.6619453
vt 0.05633754 0.6282496
vt 0.05633754 0.6282496
vt 0.05170926 0.6695197
vt 0.05170571 0.6576518
vt 0.05170349 0.6282496
vt 0.05170571 0.6142077
vt 0.05633754 0.6576518
vt 0.05633754 0.6576518
vt 0.05633754 0.6233723
vt 0.05633754 0.6142077
vt 0.05170511 0.6576518
vt 0.05170902 0.6619453
vt 0.05170565 0.6233723
vt 0.05170469 0.6282496
vt 0.04498737 0.6695197
vt 0.04498737 0.6619453
vt 0.04498737 0.6576518
vt 0.04498737 0.6282496
vt 0.04498737 0.6233723
vt 0.04498737 0.6233723
vt 0.04498737 0.6282496
vt 0.04498737 0.6576518
vt 0.04267847 0.6695197
vt 0.03810347 0.6695197
vt 0.03810317 0.6619453
vt 0.04267847 0.6619453
vt 0.04267847 0.6576518
vt 0.03809987 0.6576518
vt 0.03809891 0.6282496
vt 0.04267847 0.6282496
vt 0.04267847 0.6142078
vt 0.03809987 0.6142078
vt 0.03809987 0.6233723
vt 0.04267847 0.6233723
vt 0.04267847 0.6282496
vt 0.03809771 0.6282496
vt 0.03809927 0.6576518
vt 0.04267847 0.6576518
vt 0.03092019 0.6695197
vt 0.03092019 0.6619453
vt 0.03092019 0.6576518
vt 0.03092019 0.6282496
vt 0.03092019 0.6233723
vt 0.03092019 0.6233723
vt 0.03092019 0.6282496
vt 0.03092019 0.6576518
vt 0.02573454 0.6695197
vt 0.0257346 0.6619453
vt 0.02573454 0.6576518
vt 0.02573454 0.6282684
vt 0.02573454 0.6234139
vt 0.02573454 0.6233723
vt 0.02573454 0.6282496
vt 0.02573454 0.6576518
vt 0.05633754 0.6619453
vt 0.05633754 0.6576518
vt 0.05170571 0.6576518
vt 0.05170902 0.6619453
vt 0.05170926 0.6619453
vt 0.05170571 0.6576518
vt 0.05633748 0.6576518
vt 0.05633754 0.6619453
vt 0.05633754 0.6282496
vt 0.05633754 0.6233723
vt 0.05170571 0.6233723
vt 0.05170469 0.6282496
vt 0.05633754 0.6233723
vt 0.05633754 0.6282496
vt 0.05170349 0.6282496
vt 0.05170565 0.6233723
vt 0.05170926 0.6695197
vt 0.05170902 0.6619453
vt 0.05170902 0.6619453
vt 0.05170571 0.6576518
vt 0.04498737 0.6619453
vt 0.05170571 0.6576518
vt 0.05170469 0.6282496
vt 0.05170469 0.6282496
vt 0.05170571 0.6233723
vt 0.05170571 0.6142077
vt 0.05170565 0.6233723
vt 0.04498737 0.6142077
vt 0.05170565 0.6233723
vt 0.05170349 0.6282496
vt 0.04498737 0.6233723
vt 0.05170349 0.6282496
vt 0.05170511 0.6576518
vt 0.05170571 0.6576518
vt 0.05170926 0.6619453
vt 0.04498737 0.6619453
vt 0.04267847 0.6619453
vt 0.04267847 0.6576518
vt 0.03809987 0.6576518
vt 0.03810317 0.6619453
vt 0.03810347 0.6619453
vt 0.03809987 0.6576518
vt 0.04267841 0.6576518
vt 0.04267847 0.6619453
vt 0.04267847 0.6282496
vt 0.04267847 0.6233723
vt 0.03809987 0.6233723
vt 0.03809891 0.6282496
vt 0.04267847 0.6233723
vt 0.04267847 0.6282496
vt 0.03809771 0.6282496
vt 0.03809987 0.6233723
vt 0.03810347 0.6695197
vt 0.03810317 0.6619453
vt 0.03810317 0.6619453
vt 0.03809987 0.6576518
vt 0.03092019 0.6619453
vt 0.03809987 0.6576518
vt 0.03809891 0.6282496
vt 0.03809891 0.6282496
vt 0.03809987 0.6233723
vt 0.03809987 0.6142078
vt 0.03809987 0.6233723
vt 0.03092019 0.6142078
vt 0.03809987 0.6233723
vt 0.03809771 0.6282496
vt 0.03092019 0.6233723
vt 0.03809771 0.6282496
vt 0.03809927 0.6576518
vt 0.03809987 0.6576518
vt 0.03810347 0.6619453
vt 0.03092019 0.6619453
vt 0.03092019 0.6695197
vt 0.03092019 0.6619453
vt 0.03092019 0.6576518
vt 0.03092019 0.6282496
vt 0.03092019 0.6233723
vt 0.03092019 0.6142078
vt 0.03092019 0.6233723
vt 0.02573454 0.6142078
vt 0.03092019 0.6282496
vt 0.03092019 0.6576518
vt 0.03092019 0.6619453
vt 0.0257346 0.6619453
vn 0 0.8903761 0.4552257
vn 0 0.8903761 0.4552256
vn 0.4552256 0.8903762 0
vn -0.4552279 0.890375 0
vn 0 0.8903761 0.4552257
vn -0.4552279 0.890375 0
vn 0.4552256 0.8903762 0
vn 0 0.8903756 -0.4552265
vn 0.4552256 0.8903761 0
vn -0.4552278 0.890375 0
vn 0 0.8903756 -0.4552265
vn 0 0.8903756 -0.4552265
vn 0.4552256 0.8903762 0
vn 0 0.8903761 0.4552256
vn 0 0.8903756 -0.4552265
vn -0.4552279 0.890375 0
vn 0 0.9998931 -0.01462619
vn 0 0.9998931 -0.01462619
vn 0.008326489 0.9999312 -0.008257166
vn 0.01462656 0.9998931 0
vn 0.00832698 0.9999312 0.008257349
vn 0 0.9998931 0.01462681
vn -0.008326974 0.9999312 0.008257369
vn -0.01462658 0.9998931 0
vn 0 0.9269082 0.3752884
vn 0 0.9269081 0.3752884
vn 0 0.9269081 0.3752884
vn 0 0.9269081 0.3752884
vn -0.3752938 0.9269059 0
vn -0.3752938 0.9269059 0
vn -0.3752938 0.9269059 0
vn -0.3752938 0.9269059 0
vn 0 0.9269068 -0.3752919
vn 0 0.9269068 -0.3752919
vn 0 0.9269068 -0.3752919
vn 0 0.9269068 -0.3752919
vn 0.3752916 0.9269068 0
vn 0.3752916 0.9269068 0
vn 0.3752916 0.9269068 0
vn 0.3752916 0.9269068 0
vn 0 0.999866 -0.01636774
vn 0 0.999866 -0.01636774
vn 0.009317873 0.9999139 -0.00924038
vn 0.0163678 0.999866 0
vn 0.009318444 0.9999139 0.009240562
vn 0 0.999866 0.01636841
vn -0.009318439 0.9999139 0.009240596
vn -0.01636782 0.999866 0
vn -0.08698175 0.9792609 -0.1829819
vn 0.0869813 0.9792609 -0.1829822
vn 0.1863619 0.9790316 -0.08225742
vn 0.1863617 0.9790317 0.08225708
vn 0.08698107 0.979261 0.1829813
vn -0.08698009 0.9792611 0.1829814
vn -0.1863609 0.9790318 0.08225732
vn -0.1863624 0.9790316 -0.08225705
vn -0.2570756 0.9315869 0.2570179
vn -0.2570756 0.9315869 0.2570179
vn -0.2570756 0.9315869 0.2570179
vn -0.2570756 0.9315869 0.2570179
vn 0.2570748 0.9315873 0.2570171
vn 0.2570748 0.9315873 0.2570171
vn 0.2570748 0.9315873 0.2570171
vn 0.2570748 0.9315873 0.2570171
vn -0.2570752 0.9315869 -0.2570179
vn -0.2570752 0.9315869 -0.2570179
vn -0.2570752 0.9315869 -0.2570179
vn -0.2570752 0.9315869 -0.2570179
vn 0.2570745 0.9315874 -0.2570171
vn 0.2570745 0.9315873 -0.2570171
vn 0.2570745 0.9315874 -0.2570171
vn 0.2570745 0.9315873 -0.2570171
vn 0 0.9998931 -0.01462618
vn 0 0.9998931 -0.01462618
vn 0.008326489 0.9999312 -0.008257166
vn 0.008326489 0.9999312 -0.008257166
vn 0.008326489 0.9999312 -0.008257166
vn 0.01462656 0.9998931 0
vn 0.01462656 0.9998931 0
vn 0.00832698 0.9999312 0.008257349
vn 0.008326981 0.9999312 0.008257349
vn 0 0.9998931 0.01462681
vn 0 0.9998931 0.01462681
vn 0 0.9998931 0.01462681
vn -0.008326975 0.9999312 0.00825737
vn -0.008326975 0.9999312 0.008257369
vn -0.008326975 0.9999312 0.00825737
vn -0.01462658 0.9998931 0
vn -0.01462658 0.9998931 0
vn -0.008326503 0.9999312 -0.00825716
vn -0.008326504 0.9999312 -0.00825716
vn -0.008326503 0.9999312 -0.00825716
vn -0.2073624 0.9560445 0.2073157
vn -0.2073624 0.9560445 0.2073156
vn -0.2073624 0.9560445 0.2073156
vn -0.2073623 0.9560445 0.2073156
vn 0.2073616 0.9560446 0.2073154
vn 0.2073617 0.9560446 0.2073154
vn 0.2073617 0.9560446 0.2073154
vn 0.2073616 0.9560446 0.2073154
vn -0.207363 0.9560441 -0.2073168
vn -0.207363 0.9560441 -0.2073168
vn -0.207363 0.9560441 -0.2073168
vn -0.2073631 0.9560441 -0.2073168
vn 0.2073623 0.9560443 -0.2073166
vn 0.2073624 0.9560443 -0.2073166
vn 0.2073623 0.9560443 -0.2073166
vn 0.2073624 0.9560443 -0.2073166
vn 0 0.999866 -0.01636773
vn 0 0.999866 -0.01636774
vn 0.009317875 0.9999139 -0.00924038
vn 0.009317874 0.9999139 -0.00924038
vn 0.009317874 0.9999139 -0.00924038
vn 0.0163678 0.999866 0
vn 0.0163678 0.999866 0
vn 0.009318442 0.9999139 0.009240562
vn 0.009318443 0.9999139 0.009240562
vn 0 0.999866 0.01636841
vn 0 0.999866 0.01636841
vn 0 0.999866 0.01636841
vn -0.009318439 0.9999139 0.009240597
vn -0.009318439 0.9999139 0.009240597
vn -0.009318439 0.9999139 0.009240597
vn -0.01636782 0.999866 0
vn -0.01636782 0.999866 0
vn -0.009317895 0.9999139 -0.009240375
vn -0.009317895 0.9999139 -0.009240376
vn -0.009317896 0.9999139 -0.009240375
vn -0.07446344 0.9795408 -0.1869625
vn 0.07446296 0.9795408 -0.1869627
vn 0.1889476 0.9792345 -0.07347537
vn 0.1889475 0.9792346 0.07347488
vn 0.07446287 0.979541 0.1869618
vn 0.07446287 0.979541 0.1869618
vn -0.07446264 0.979541 0.1869617
vn 0.08698107 0.979261 0.1829813
vn -0.1889468 0.9792347 0.07347466
vn -0.1889479 0.9792345 -0.07347541
vn -0.07446344 0.9795408 -0.1869625
vn -0.08698175 0.9792609 -0.1829819
g [gimmick]demonworld_metro_door_0
f 14/14/14 2/2/2 1/1/1
f 5/5/5 14/14/14 1/1/1
f 16/16/16 4/4/4 10/10/10
f 6/6/6 16/16/16 10/10/10
f 15/15/15 11/11/11 12/12/12
f 8/8/8 15/15/15 12/12/12
f 13/13/13 9/9/9 3/3/3
f 7/7/7 13/13/13 3/3/3
f 59/59/59 58/58/58 57/57/57
f 60/60/60 59/59/59 57/57/57
f 63/63/63 62/62/62 61/61/61
f 64/64/64 63/63/63 61/61/61
f 67/67/67 66/66/66 65/65/65
f 68/68/68 67/67/67 65/65/65
f 71/71/71 70/70/70 69/69/69
f 72/72/72 71/71/71 69/69/69
f 18/18/18 74/74/74 73/73/73
f 17/17/17 18/18/18 73/73/73
f 19/19/19 76/76/76 75/75/75
f 77/77/77 19/19/19 75/75/75
f 20/20/20 79/79/79 78/78/78
f 19/19/19 20/20/20 78/78/78
f 21/21/21 81/81/81 80/80/80
f 20/20/20 21/21/21 80/80/80
f 22/22/22 83/83/83 82/82/82
f 84/84/84 22/22/22 82/82/82
f 23/23/23 86/86/86 85/85/85
f 87/87/87 23/23/23 85/85/85
f 24/24/24 89/89/89 88/88/88
f 23/23/23 24/24/24 88/88/88
f 92/92/92 91/91/91 90/90/90
f 24/24/24 92/92/92 90/90/90
f 27/27/27 28/28/28 25/25/25
f 26/26/26 27/27/27 25/25/25
f 31/31/31 32/32/32 29/29/29
f 30/30/30 31/31/31 29/29/29
f 35/35/35 36/36/36 33/33/33
f 34/34/34 35/35/35 33/33/33
f 39/39/39 40/40/40 37/37/37
f 38/38/38 39/39/39 37/37/37
f 95/95/95 94/94/94 93/93/93
f 96/96/96 95/95/95 93/93/93
f 99/99/99 98/98/98 97/97/97
f 100/100/100 99/99/99 97/97/97
f 103/103/103 102/102/102 101/101/101
f 104/104/104 103/103/103 101/101/101
f 107/107/107 106/106/106 105/105/105
f 108/108/108 107/107/107 105/105/105
f 42/42/42 110/110/110 109/109/109
f 41/41/41 42/42/42 109/109/109
f 43/43/43 112/112/112 111/111/111
f 113/113/113 43/43/43 111/111/111
f 44/44/44 115/115/115 114/114/114
f 43/43/43 44/44/44 114/114/114
f 45/45/45 117/117/117 116/116/116
f 44/44/44 45/45/45 116/116/116
f 46/46/46 119/119/119 118/118/118
f 120/120/120 46/46/46 118/118/118
f 47/47/47 122/122/122 121/121/121
f 123/123/123 47/47/47 121/121/121
f 48/48/48 125/125/125 124/124/124
f 47/47/47 48/48/48 124/124/124
f 128/128/128 127/127/127 126/126/126
f 48/48/48 128/128/128 126/126/126
f 50/50/50 130/130/130 129/129/129
f 49/49/49 50/50/50 129/129/129
f 51/51/51 131/131/131 130/130/130
f 50/50/50 51/51/51 130/130/130
f 52/52/52 132/132/132 131/131/131
f 51/51/51 52/52/52 131/131/131
f 53/53/53 133/133/133 132/132/132
f 52/52/52 53/53/53 132/132/132
f 54/54/54 135/135/135 134/134/134
f 136/136/136 54/54/54 134/134/134
f 55/55/55 137/137/137 135/135/135
f 54/54/54 55/55/55 135/135/135
f 56/56/56 138/138/138 137/137/137
f 55/55/55 56/56/56 137/137/137
f 140/140/140 139/139/139 138/138/138
f 56/56/56 140/140/140 138/138/138
