g obj_demonworld_fence_end2
v -0.1157796 -0.01062447 -0.2082009
v -0.1294222 -0.03388702 -0.0831471
v -0.1157796 -0.03058781 -0.1008826
v -0.3586079 -0.03058781 -0.1008826
v -0.3449652 -0.0338871 -0.08314703
v -0.3449652 -0.007325287 -0.2259363
v -0.1294222 -0.007325287 -0.2259363
v -0.3586079 -0.01062447 -0.2082008
v -0.2371937 0.6981581 -0.05298189
v -0.08227188 0.5090923 0.01028821
v -0.2371937 0.6816342 0.05433644
v -0.08227188 0.5256163 -0.09703004
v -0.2371938 0.6801145 -0.07491224
v -0.08710754 0.511097 -0.1182488
v -0.1294222 -0.007325287 -0.2259363
v -0.38728 0.511097 -0.1182488
v -0.3449652 -0.007325287 -0.2259363
v -0.2371938 0.6801145 -0.07491224
v -0.08710754 0.511097 -0.1182488
v -0.3586079 -0.01062447 -0.2082008
v -0.4062792 0.4832831 0.005076609
v -0.3586079 -0.03058781 -0.1008826
v -0.4062792 0.4998071 -0.1022416
v -0.3449652 -0.007325287 -0.2259363
v -0.38728 0.511097 -0.1182488
v -0.3921157 0.5256161 -0.09703
v -0.3921157 0.5090923 0.01028829
v -0.3449652 -0.0338871 -0.08314703
v -0.08710754 0.4891114 0.02454045
v -0.1294222 -0.03388702 -0.0831471
v -0.2371937 0.6581293 0.06787694
v -0.38728 0.4891114 0.02454045
v -0.3921157 0.5256161 -0.09703
v -0.2371937 0.6816342 0.05433644
v -0.3921157 0.5090923 0.01028829
v -0.2371937 0.6981581 -0.05298189
v -0.38728 0.511097 -0.1182488
v -0.2371938 0.6801145 -0.07491224
v -0.5000004 0.4174651 -0.1176805
v -0.2801858 0.4014253 -0.0135065
v -0.5000004 0.4014253 -0.0135065
v -0.2801858 0.4174651 -0.1176806
v -0.5000004 0.2486696 -0.0443526
v -0.2801858 0.4014253 -0.0135065
v -0.2801858 0.2486697 -0.04435268
v -0.5000004 0.4014253 -0.0135065
v -0.5000004 0.2647095 -0.1485265
v -0.2801858 0.4174651 -0.1176806
v -0.5000004 0.4174651 -0.1176805
v -0.2801858 0.2647095 -0.1485265
v -0.06810829 0.4832831 0.005076609
v -0.08710754 0.4891114 0.02454045
v -0.08227188 0.5090923 0.01028821
v -0.1294222 -0.03388702 -0.0831471
v -0.1157796 -0.03058781 -0.1008826
v -0.38728 0.4891114 0.02454045
v -0.4062792 0.4832831 0.005076609
v -0.3921157 0.5090923 0.01028829
v -0.3586079 -0.03058781 -0.1008826
v -0.3449652 -0.0338871 -0.08314703
v -0.2371937 0.6816342 0.05433644
v -0.08710754 0.4891114 0.02454045
v -0.2371937 0.6581293 0.06787694
v -0.08227188 0.5090923 0.01028821
v -0.1157796 -0.01062447 -0.2082009
v -0.08710754 0.511097 -0.1182488
v -0.1294222 -0.007325287 -0.2259363
v -0.06810836 0.4998071 -0.1022417
v -0.08227188 0.5256163 -0.09703004
v -0.1157796 -0.03058781 -0.1008826
v -0.08227188 0.5090923 0.01028821
v -0.06810829 0.4832831 0.005076609
v -0.2371937 0.6581293 0.06787694
v -0.3921157 0.5090923 0.01028829
v -0.2371937 0.6816342 0.05433644
v -0.38728 0.4891114 0.02454045
v 0.3824757 -0.01062439 -0.2082009
v 0.368833 -0.03388702 -0.0831471
v 0.3824757 -0.03058773 -0.1008826
v 0.1396474 -0.03058773 -0.1008826
v 0.1532901 -0.0338871 -0.08314703
v 0.1532901 -0.007325211 -0.2259363
v 0.368833 -0.007325211 -0.2259363
v 0.1396474 -0.01062439 -0.2082009
v 0.2610615 0.6981581 -0.05298189
v 0.4159834 0.5090923 0.01028821
v 0.2610615 0.6816342 0.05433644
v 0.4159834 0.5256163 -0.09703004
v 0.2610615 0.6801145 -0.07491224
v 0.4111477 0.511097 -0.1182488
v 0.368833 -0.007325211 -0.2259363
v 0.1109753 0.511097 -0.1182488
v 0.1532901 -0.007325211 -0.2259363
v 0.2610615 0.6801145 -0.07491224
v 0.4111477 0.511097 -0.1182488
v 0.1396474 -0.01062439 -0.2082009
v 0.09197608 0.4832831 0.005076609
v 0.1396474 -0.03058773 -0.1008826
v 0.09197608 0.4998071 -0.1022416
v 0.1532901 -0.007325211 -0.2259363
v 0.1109753 0.511097 -0.1182488
v 0.1061397 0.5256161 -0.09703
v 0.1061397 0.5090923 0.01028829
v 0.1532901 -0.0338871 -0.08314703
v 0.4111477 0.4891114 0.02454045
v 0.368833 -0.03388702 -0.0831471
v 0.2610615 0.6581293 0.06787694
v 0.1109753 0.4891114 0.02454045
v 0.1061397 0.5256161 -0.09703
v 0.2610615 0.6816342 0.05433644
v 0.1061397 0.5090923 0.01028829
v 0.2610615 0.6981581 -0.05298189
v 0.1109753 0.511097 -0.1182488
v 0.2610615 0.6801145 -0.07491224
v -0.09851028 0.4174651 -0.1176805
v 0.1213043 0.4014252 -0.0135065
v -0.09851028 0.4014252 -0.0135065
v 0.1213043 0.4174652 -0.1176806
v -0.09851028 0.2486696 -0.04435272
v 0.1213043 0.4014252 -0.0135065
v 0.1213043 0.2486696 -0.04435279
v -0.09851028 0.4014252 -0.0135065
v -0.09851028 0.2647096 -0.1485266
v 0.1213043 0.4174652 -0.1176806
v -0.09851028 0.4174651 -0.1176805
v 0.1213043 0.2647096 -0.1485266
v 0.4301471 0.4832831 0.005076609
v 0.4111477 0.4891114 0.02454045
v 0.4159834 0.5090923 0.01028821
v 0.368833 -0.03388702 -0.0831471
v 0.3824757 -0.03058773 -0.1008826
v 0.1109753 0.4891114 0.02454045
v 0.09197608 0.4832831 0.005076609
v 0.1061397 0.5090923 0.01028829
v 0.1396474 -0.03058773 -0.1008826
v 0.1532901 -0.0338871 -0.08314703
v 0.2610615 0.6816342 0.05433644
v 0.4111477 0.4891114 0.02454045
v 0.2610615 0.6581293 0.06787694
v 0.4159834 0.5090923 0.01028821
v 0.3824757 -0.01062439 -0.2082009
v 0.4111477 0.511097 -0.1182488
v 0.368833 -0.007325211 -0.2259363
v 0.4301469 0.4998071 -0.1022417
v 0.4159834 0.5256163 -0.09703004
v 0.3824757 -0.03058773 -0.1008826
v 0.4159834 0.5090923 0.01028821
v 0.4301471 0.4832831 0.005076609
v 0.2610615 0.6581293 0.06787694
v 0.1061397 0.5090923 0.01028829
v 0.2610615 0.6816342 0.05433644
v 0.1109753 0.4891114 0.02454045
vt 2.482111 1.904731
vt 2.425929 2.780523
vt 2.482111 2.656315
vt 1.482111 2.656315
vt 1.538294 2.780523
vt 1.538294 1.780523
vt 2.425929 1.780523
vt 1.482111 1.904731
vt 0.3188513 0.8346977
vt 0.305826 0.836881
vt 0.3188513 0.836881
vt 0.305826 0.8346977
vt 0.3188513 0.8327088
vt 0.305826 0.8327088
vt 0.3961974 0.594245
vt 0.4220266 0.6437063
vt 0.4220278 0.594245
vt 0.4091115 0.6511745
vt 0.396196 0.6437063
vt 0.4287302 0.5936576
vt 0.4239592 0.6470004
vt 0.4239591 0.5936576
vt 0.4287302 0.6470004
vt 0.4321194 0.5936576
vt 0.4321194 0.6470004
vt 0.4287302 0.6515013
vt 0.4239592 0.6515013
vt 0.4220278 0.594245
vt 0.3961961 0.6437063
vt 0.3961974 0.594245
vt 0.4091114 0.6511744
vt 0.4220266 0.6437063
vt 0.3318766 0.8346977
vt 0.3188513 0.836881
vt 0.3318766 0.836881
vt 0.3188513 0.8346977
vt 0.3318766 0.8327088
vt 0.3188513 0.8327088
vt 0.3109764 0.8308215
vt 0.3063221 0.8286684
vt 0.3063221 0.8308215
vt 0.3109764 0.8286684
vt 0.3247014 0.8308215
vt 0.3109764 0.8286684
vt 0.3247014 0.8286684
vt 0.3109764 0.8308215
vt 0.3247014 0.8308215
vt 0.3109764 0.8286684
vt 0.3109764 0.8308215
vt 0.3247014 0.8286684
vt 0.4287302 0.6470004
vt 0.4321194 0.6470004
vt 0.4287302 0.6515013
vt 0.4321194 0.5936576
vt 0.4287302 0.5936576
vt 0.4321194 0.6470004
vt 0.4287302 0.6470004
vt 0.4287302 0.6515013
vt 0.4287302 0.5936576
vt 0.4321194 0.5936576
vt 0.3188513 0.8346977
vt 0.305826 0.8327088
vt 0.3188513 0.8327088
vt 0.305826 0.8346977
vt 0.4287302 0.5936576
vt 0.4321194 0.6470004
vt 0.4321194 0.5936576
vt 0.4287302 0.6470004
vt 0.4287302 0.6515013
vt 0.4239591 0.5936576
vt 0.4239592 0.6515013
vt 0.4239592 0.6470004
vt 0.3188513 0.8327088
vt 0.3318766 0.8346977
vt 0.3188513 0.8346977
vt 0.3318766 0.8327088
vt 2.482111 1.904731
vt 2.425929 2.780523
vt 2.482111 2.656315
vt 1.482111 2.656315
vt 1.538294 2.780523
vt 1.538294 1.780523
vt 2.425929 1.780523
vt 1.482111 1.904731
vt 0.3188513 0.8346977
vt 0.305826 0.836881
vt 0.3188513 0.836881
vt 0.305826 0.8346977
vt 0.3188513 0.8327088
vt 0.305826 0.8327088
vt 0.3961974 0.594245
vt 0.4220266 0.6437063
vt 0.4220278 0.594245
vt 0.4091115 0.6511745
vt 0.396196 0.6437063
vt 0.4287302 0.5936576
vt 0.4239592 0.6470004
vt 0.4239591 0.5936576
vt 0.4287302 0.6470004
vt 0.4321194 0.5936576
vt 0.4321194 0.6470004
vt 0.4287302 0.6515013
vt 0.4239592 0.6515013
vt 0.4220278 0.594245
vt 0.3961961 0.6437063
vt 0.3961974 0.594245
vt 0.4091114 0.6511744
vt 0.4220266 0.6437063
vt 0.3318766 0.8346977
vt 0.3188513 0.836881
vt 0.3318766 0.836881
vt 0.3188513 0.8346977
vt 0.3318766 0.8327088
vt 0.3188513 0.8327088
vt 0.3109764 0.8308215
vt 0.3063221 0.8286684
vt 0.3063221 0.8308215
vt 0.3109764 0.8286684
vt 0.3247013 0.8308215
vt 0.3109764 0.8286684
vt 0.3247013 0.8286684
vt 0.3109764 0.8308215
vt 0.3247014 0.8308215
vt 0.3109764 0.8286684
vt 0.3109764 0.8308215
vt 0.3247014 0.8286684
vt 0.4287302 0.6470004
vt 0.4321194 0.6470004
vt 0.4287302 0.6515013
vt 0.4321194 0.5936576
vt 0.4287302 0.5936576
vt 0.4321194 0.6470004
vt 0.4287302 0.6470004
vt 0.4287302 0.6515013
vt 0.4287302 0.5936576
vt 0.4321194 0.5936576
vt 0.3188513 0.8346977
vt 0.305826 0.8327088
vt 0.3188513 0.8327088
vt 0.305826 0.8346977
vt 0.4287302 0.5936576
vt 0.4321194 0.6470004
vt 0.4321194 0.5936576
vt 0.4287302 0.6470004
vt 0.4287302 0.6515013
vt 0.4239591 0.5936576
vt 0.4239592 0.6515013
vt 0.4239592 0.6470004
vt 0.3188513 0.8327088
vt 0.3318766 0.8346977
vt 0.3188513 0.8346977
vt 0.3318766 0.8327088
vn 0 -0.9831346 -0.1828835
vn 7.667892E-07 -0.9831346 -0.1828833
vn 3.762257E-06 -0.9831347 -0.1828827
vn 0 -0.9831343 -0.1828851
vn 2.832557E-07 -0.9831335 -0.1828894
vn 2.045545E-07 -0.9831347 -0.182883
vn 0 -0.9831344 -0.1828844
vn 1.184705E-06 -0.9831347 -0.1828828
vn 0.7209478 0.680612 -0.130391
vn 0.7815448 0.4793336 0.399283
vn 0.7410874 0.5736939 0.348805
vn 0.7591795 0.6069067 -0.2351828
vn 0.5612566 0.6382304 -0.5269277
vn 0.6724174 0.3993618 -0.6231894
vn -0.0006375375 0.2069019 -0.9783614
vn 0.02882028 0.2170178 -0.9757421
vn 0 0.2033804 -0.9790998
vn 0.001496386 0.2147971 -0.9766575
vn -0.04905767 0.2069724 -0.9771161
vn -0.9418957 -0.01807169 -0.335419
vn -0.921046 0.09034949 0.3788288
vn -0.9427741 -0.1444791 0.3005041
vn -0.9191452 0.2288886 -0.3205964
vn -0.7924917 0.05239178 -0.6076282
vn -0.6706871 0.4030908 -0.6226529
vn -0.7582042 0.6077811 -0.2360688
vn -0.7827196 0.4787185 0.3977169
vn -0.0006481098 -0.2052816 0.9787027
vn 0.03003881 -0.2157689 0.9759823
vn 4.180734E-07 -0.2016734 0.9794528
vn 0.001546626 -0.2134487 0.976953
vn -0.05093887 -0.2053635 0.9773592
vn -0.7582042 0.6077811 -0.2360688
vn -0.739913 0.5753787 0.3485226
vn -0.7827196 0.4787185 0.3977169
vn -0.721671 0.6797256 -0.1310115
vn -0.6706871 0.4030908 -0.6226529
vn -0.5657837 0.6367365 -0.523885
vn 0 0.9883531 0.1521779
vn -2.076126E-07 0.9883531 0.1521781
vn 0 0.9883532 0.1521777
vn -2.902222E-07 0.9883531 0.1521783
vn 1.605451E-07 -0.197936 0.980215
vn 2.483714E-07 -0.1979361 0.980215
vn 4.089165E-07 -0.1979363 0.9802148
vn 0 -0.1979358 0.980215
vn -3.151576E-07 0.1979351 -0.9802151
vn -2.638667E-07 0.1979351 -0.9802152
vn -4.089162E-07 0.1979353 -0.9802151
vn -1.701081E-07 0.1979349 -0.9802152
vn 0.9214088 0.09316671 0.3772609
vn 0.6912169 0.1429847 0.7083605
vn 0.7815448 0.4793336 0.399283
vn 0.7911427 -0.1928129 0.5804449
vn 0.9432623 -0.1489695 0.2967562
vn -0.6929961 0.1388919 0.7074358
vn -0.921046 0.09034949 0.3788288
vn -0.7827196 0.4787185 0.3977169
vn -0.9427741 -0.1444791 0.3005041
vn -0.7953788 -0.1833092 0.5777286
vn 0.7410874 0.5736939 0.348805
vn 0.6912169 0.1429847 0.7083605
vn 0.6305134 0.3874435 0.6725626
vn 0.7815448 0.4793336 0.399283
vn 0.9411963 -0.01283537 -0.3376163
vn 0.6724174 0.3993618 -0.6231894
vn 0.7965564 0.05994564 -0.6015849
vn 0.9186952 0.227276 -0.3230245
vn 0.7591795 0.6069067 -0.2351828
vn 0.9432623 -0.1489695 0.2967562
vn 0.7815448 0.4793336 0.399283
vn 0.9214088 0.09316671 0.3772609
vn -0.6249533 0.3878385 0.6775063
vn -0.7827196 0.4787185 0.3977169
vn -0.739913 0.5753787 0.3485226
vn -0.6929961 0.1388919 0.7074358
vn 1.643561E-07 -0.9831345 -0.1828838
vn 1.907924E-06 -0.9831345 -0.1828839
vn 9.269512E-06 -0.9831347 -0.1828827
vn 0 -0.9831339 -0.1828866
vn 2.83254E-07 -0.9831328 -0.1828935
vn 4.971972E-07 -0.9831347 -0.1828829
vn 0 -0.9831344 -0.1828844
vn 2.385417E-06 -0.9831347 -0.1828827
vn 0.7209478 0.680612 -0.130391
vn 0.7815443 0.4793343 0.3992832
vn 0.7410874 0.5736939 0.348805
vn 0.7591793 0.6069071 -0.2351819
vn 0.5612567 0.6382305 -0.5269276
vn 0.6724176 0.3993625 -0.6231887
vn -0.0006375431 0.2069019 -0.9783614
vn 0.02882037 0.2170178 -0.9757421
vn 0 0.2033803 -0.9790998
vn 0.001496381 0.2147971 -0.9766575
vn -0.04905777 0.2069724 -0.9771161
vn -0.9418954 -0.01807141 -0.33542
vn -0.9210458 0.09034984 0.3788292
vn -0.9427744 -0.144479 0.3005038
vn -0.919145 0.2288897 -0.3205964
vn -0.7924907 0.05239223 -0.6076295
vn -0.6706869 0.4030918 -0.6226525
vn -0.7582039 0.6077819 -0.2360679
vn -0.7827193 0.4787189 0.397717
vn -0.0006481115 -0.2052816 0.9787027
vn 0.03003882 -0.2157689 0.9759823
vn 4.180735E-07 -0.2016734 0.9794528
vn 0.001546625 -0.2134487 0.976953
vn -0.05093889 -0.2053635 0.9773592
vn -0.7582039 0.6077819 -0.2360679
vn -0.7399131 0.5753787 0.3485225
vn -0.7827193 0.4787189 0.397717
vn -0.7216712 0.6797256 -0.131011
vn -0.6706869 0.4030918 -0.6226525
vn -0.5657836 0.6367366 -0.523885
vn 0 0.9883528 0.1521793
vn -2.076122E-07 0.9883528 0.1521795
vn 0 0.988353 0.1521791
vn -2.902216E-07 0.9883528 0.1521797
vn 1.470588E-07 -0.1979367 0.9802148
vn 2.275075E-07 -0.1979368 0.9802147
vn 3.745664E-07 -0.1979371 0.9802147
vn 0 -0.1979365 0.9802148
vn -3.151576E-07 0.1979358 -0.980215
vn -2.638667E-07 0.1979358 -0.980215
vn -4.089164E-07 0.197936 -0.980215
vn -1.701081E-07 0.1979356 -0.9802151
vn 0.9214085 0.09316745 0.3772614
vn 0.691216 0.142985 0.7083614
vn 0.7815443 0.4793343 0.3992832
vn 0.7911415 -0.1928133 0.5804467
vn 0.9432619 -0.1489698 0.2967575
vn -0.6929956 0.1388922 0.7074363
vn -0.9210458 0.09034984 0.3788292
vn -0.7827193 0.4787189 0.397717
vn -0.9427744 -0.144479 0.3005038
vn -0.7953792 -0.183309 0.5777281
vn 0.7410874 0.5736939 0.348805
vn 0.691216 0.142985 0.7083614
vn 0.6305134 0.3874435 0.6725626
vn 0.7815443 0.4793343 0.3992832
vn 0.9411959 -0.01283514 -0.3376176
vn 0.6724176 0.3993625 -0.6231887
vn 0.7965548 0.0599461 -0.6015871
vn 0.918695 0.2272766 -0.3230244
vn 0.7591793 0.6069071 -0.2351819
vn 0.9432619 -0.1489698 0.2967575
vn 0.7815443 0.4793343 0.3992832
vn 0.9214085 0.09316745 0.3772614
vn -0.6249534 0.3878385 0.6775062
vn -0.7827193 0.4787189 0.397717
vn -0.7399131 0.5753787 0.3485225
vn -0.6929956 0.1388922 0.7074363
g obj_demonworld_fence_end2_0
f 3/3/3 2/2/2 1/1/1
f 2/2/2 4/4/4 1/1/1
f 5/5/5 4/4/4 2/2/2
f 4/4/4 6/6/6 1/1/1
f 1/1/1 6/6/6 7/7/7
f 8/8/8 6/6/6 4/4/4
f 11/11/11 10/10/10 9/9/9
f 12/12/12 9/9/9 10/10/10
f 9/9/9 12/12/12 13/13/13
f 14/14/14 13/13/13 12/12/12
f 17/17/17 16/16/16 15/15/15
f 16/16/16 18/18/18 15/15/15
f 18/18/18 19/19/19 15/15/15
f 22/22/22 21/21/21 20/20/20
f 23/23/23 20/20/20 21/21/21
f 20/20/20 23/23/23 24/24/24
f 25/25/25 24/24/24 23/23/23
f 26/26/26 25/25/25 23/23/23
f 23/23/23 21/21/21 26/26/26
f 27/27/27 26/26/26 21/21/21
f 30/30/30 29/29/29 28/28/28
f 29/29/29 31/31/31 28/28/28
f 31/31/31 32/32/32 28/28/28
f 35/35/35 34/34/34 33/33/33
f 36/36/36 33/33/33 34/34/34
f 33/33/33 36/36/36 37/37/37
f 38/38/38 37/37/37 36/36/36
f 41/41/41 40/40/40 39/39/39
f 42/42/42 39/39/39 40/40/40
f 45/45/45 44/44/44 43/43/43
f 46/46/46 43/43/43 44/44/44
f 49/49/49 48/48/48 47/47/47
f 50/50/50 47/47/47 48/48/48
f 53/53/53 52/52/52 51/51/51
f 52/52/52 54/54/54 51/51/51
f 55/55/55 51/51/51 54/54/54
f 58/58/58 57/57/57 56/56/56
f 57/57/57 59/59/59 56/56/56
f 60/60/60 56/56/56 59/59/59
f 63/63/63 62/62/62 61/61/61
f 64/64/64 61/61/61 62/62/62
f 67/67/67 66/66/66 65/65/65
f 68/68/68 65/65/65 66/66/66
f 69/69/69 68/68/68 66/66/66
f 65/65/65 68/68/68 70/70/70
f 69/69/69 71/71/71 68/68/68
f 72/72/72 70/70/70 68/68/68
f 72/72/72 68/68/68 71/71/71
f 75/75/75 74/74/74 73/73/73
f 76/76/76 73/73/73 74/74/74
f 79/79/79 78/78/78 77/77/77
f 78/78/78 80/80/80 77/77/77
f 81/81/81 80/80/80 78/78/78
f 80/80/80 82/82/82 77/77/77
f 77/77/77 82/82/82 83/83/83
f 84/84/84 82/82/82 80/80/80
f 87/87/87 86/86/86 85/85/85
f 88/88/88 85/85/85 86/86/86
f 85/85/85 88/88/88 89/89/89
f 90/90/90 89/89/89 88/88/88
f 93/93/93 92/92/92 91/91/91
f 92/92/92 94/94/94 91/91/91
f 94/94/94 95/95/95 91/91/91
f 98/98/98 97/97/97 96/96/96
f 99/99/99 96/96/96 97/97/97
f 96/96/96 99/99/99 100/100/100
f 101/101/101 100/100/100 99/99/99
f 102/102/102 101/101/101 99/99/99
f 99/99/99 97/97/97 102/102/102
f 103/103/103 102/102/102 97/97/97
f 106/106/106 105/105/105 104/104/104
f 105/105/105 107/107/107 104/104/104
f 107/107/107 108/108/108 104/104/104
f 111/111/111 110/110/110 109/109/109
f 112/112/112 109/109/109 110/110/110
f 109/109/109 112/112/112 113/113/113
f 114/114/114 113/113/113 112/112/112
f 117/117/117 116/116/116 115/115/115
f 118/118/118 115/115/115 116/116/116
f 121/121/121 120/120/120 119/119/119
f 122/122/122 119/119/119 120/120/120
f 125/125/125 124/124/124 123/123/123
f 126/126/126 123/123/123 124/124/124
f 129/129/129 128/128/128 127/127/127
f 128/128/128 130/130/130 127/127/127
f 131/131/131 127/127/127 130/130/130
f 134/134/134 133/133/133 132/132/132
f 133/133/133 135/135/135 132/132/132
f 136/136/136 132/132/132 135/135/135
f 139/139/139 138/138/138 137/137/137
f 140/140/140 137/137/137 138/138/138
f 143/143/143 142/142/142 141/141/141
f 144/144/144 141/141/141 142/142/142
f 145/145/145 144/144/144 142/142/142
f 141/141/141 144/144/144 146/146/146
f 145/145/145 147/147/147 144/144/144
f 148/148/148 146/146/146 144/144/144
f 148/148/148 144/144/144 147/147/147
f 151/151/151 150/150/150 149/149/149
f 152/152/152 149/149/149 150/150/150
