g obj_demonworld_schoolflag_light
v -0.8190758 2.183775 0.1631454
v -0.8024766 2.186909 0.1471109
v -0.8547996 2.460842 0.1373431
v -0.8789267 2.456429 0.1607917
v -0.8024766 2.186909 0.1471109
v -0.576941 2.186909 0.1471109
v -0.5249958 2.460842 0.137343
v -0.8547996 2.460842 0.1373431
v -0.576941 2.186909 0.1471109
v -0.5605547 2.183775 0.1631454
v -0.5008666 2.45643 0.1607918
v -0.5249958 2.460842 0.137343
v -0.5602056 2.142132 0.3762183
v -0.5768049 2.138998 0.3922527
v -0.5244836 2.39339 0.4958372
v -0.5003566 2.397802 0.4723884
v -0.5768049 2.138998 0.3922527
v -0.8023404 2.138998 0.3922528
v -0.8542874 2.39339 0.4958372
v -0.5244836 2.39339 0.4958372
v -0.8023404 2.138998 0.3922528
v -0.8187268 2.142132 0.3762183
v -0.8784165 2.397802 0.4723885
v -0.8542874 2.39339 0.4958372
v -0.8187268 2.142132 0.3762183
v -0.8190758 2.183775 0.1631454
v -0.8789267 2.456429 0.1607917
v -0.8784165 2.397802 0.4723885
v -0.5605547 2.183775 0.1631454
v -0.5602056 2.142132 0.3762183
v -0.5003566 2.397802 0.4723884
v -0.5008666 2.45643 0.1607918
v 0.5842006 2.183775 0.1631455
v 0.6007998 2.186909 0.147111
v 0.5484767 2.460842 0.1373431
v 0.5243496 2.456429 0.1607918
v 0.6007998 2.186909 0.147111
v 0.8263354 2.186909 0.1471109
v 0.8782805 2.460842 0.1373431
v 0.5484767 2.460842 0.1373431
v 0.8263354 2.186909 0.1471109
v 0.8427216 2.183775 0.1631454
v 0.9024097 2.45643 0.1607918
v 0.8782805 2.460842 0.1373431
v 0.8430708 2.142132 0.3762183
v 0.8264714 2.138998 0.3922528
v 0.8787929 2.39339 0.4958372
v 0.9029198 2.397802 0.4723885
v 0.8264714 2.138998 0.3922528
v 0.6009359 2.138998 0.392253
v 0.5489888 2.39339 0.4958373
v 0.8787929 2.39339 0.4958372
v 0.6009359 2.138998 0.392253
v 0.5845495 2.142132 0.3762183
v 0.5248597 2.397802 0.4723886
v 0.5489888 2.39339 0.4958373
v 0.5845495 2.142132 0.3762183
v 0.5842006 2.183775 0.1631455
v 0.5243496 2.456429 0.1607918
v 0.5248597 2.397802 0.4723886
v 0.8427216 2.183775 0.1631454
v 0.8430708 2.142132 0.3762183
v 0.9029198 2.397802 0.4723885
v 0.9024097 2.45643 0.1607918
vt 0.9531387 0.9651724
vt 0.9593357 0.9651724
vt 0.9593357 0.9983833
vt 0.9531387 0.9983833
vt 0.9593357 0.9651724
vt 0.965413 0.9651724
vt 0.965413 0.9983833
vt 0.9593357 0.9983833
vt 0.9593357 0.9651724
vt 0.9531387 0.9651724
vt 0.9531387 0.9983833
vt 0.9593357 0.9983833
vt 0.9531387 0.9651724
vt 0.9593357 0.9651724
vt 0.9593357 0.9983833
vt 0.9531387 0.9983833
vt 0.9593357 0.9651724
vt 0.965413 0.9651724
vt 0.965413 0.9983833
vt 0.9593357 0.9983833
vt 0.9593357 0.9651724
vt 0.9531387 0.9651724
vt 0.9531387 0.9983833
vt 0.9593357 0.9983833
vt 0.9593357 0.9651724
vt 0.965413 0.9651724
vt 0.965413 0.9983833
vt 0.9593357 0.9983833
vt 0.9593357 0.9651724
vt 0.965413 0.9651724
vt 0.965413 0.9983833
vt 0.9593357 0.9983833
vt 0.9531387 0.9651724
vt 0.9593357 0.9651724
vt 0.9593357 0.9983833
vt 0.9531387 0.9983833
vt 0.9593357 0.9651724
vt 0.965413 0.9651724
vt 0.965413 0.9983833
vt 0.9593357 0.9983833
vt 0.9593357 0.9651724
vt 0.9531387 0.9651724
vt 0.9531387 0.9983833
vt 0.9593357 0.9983833
vt 0.9531387 0.9651724
vt 0.9593357 0.9651724
vt 0.9593357 0.9983833
vt 0.9531387 0.9983833
vt 0.9593357 0.9651724
vt 0.965413 0.9651724
vt 0.965413 0.9983833
vt 0.9593357 0.9983833
vt 0.9593357 0.9651724
vt 0.9531387 0.9651724
vt 0.9531387 0.9983833
vt 0.9593357 0.9983833
vt 0.9593357 0.9651724
vt 0.965413 0.9651724
vt 0.965413 0.9983833
vt 0.9593357 0.9983833
vt 0.9593357 0.9651724
vt 0.965413 0.9651724
vt 0.965413 0.9983833
vt 0.9593357 0.9983833
vn -0.6728752 -0.1541371 -0.7235196
vn -0.6728752 -0.1541371 -0.7235197
vn -0.6728752 -0.1541371 -0.7235197
vn -0.6728753 -0.1541371 -0.7235196
vn 0 -0.03563531 -0.9993649
vn 0 -0.03563531 -0.9993649
vn 0 -0.03563531 -0.9993649
vn 0 -0.03563531 -0.9993649
vn 0.6747758 -0.1538219 -0.7218146
vn 0.6747758 -0.1538219 -0.7218146
vn 0.6747757 -0.1538219 -0.7218146
vn 0.6747758 -0.1538219 -0.7218146
vn 0.6766129 -0.3927276 0.6228645
vn 0.6766129 -0.3927276 0.6228645
vn 0.6766129 -0.3927276 0.6228645
vn 0.6766129 -0.3927275 0.6228645
vn 1.800602E-07 -0.3771188 0.9261649
vn 1.800602E-07 -0.3771187 0.9261649
vn 1.800602E-07 -0.3771188 0.9261649
vn 1.800602E-07 -0.3771187 0.9261649
vn -0.6785062 -0.3918446 0.6213592
vn -0.6785063 -0.3918446 0.6213592
vn -0.6785062 -0.3918446 0.6213591
vn -0.6785063 -0.3918445 0.6213591
vn -0.9760712 -0.2138748 -0.03927574
vn -0.9760712 -0.2138748 -0.03927574
vn -0.9760712 -0.2138748 -0.03927574
vn -0.9760712 -0.2138748 -0.03927574
vn 0.9760637 -0.213318 -0.04236632
vn 0.9760637 -0.213318 -0.04236632
vn 0.9760637 -0.213318 -0.04236632
vn 0.9760637 -0.213318 -0.04236632
vn -0.6728753 -0.1541371 -0.7235196
vn -0.6728752 -0.1541371 -0.7235196
vn -0.6728753 -0.1541371 -0.7235196
vn -0.6728752 -0.1541371 -0.7235197
vn 0 -0.03563532 -0.9993649
vn 0 -0.03563532 -0.9993649
vn 0 -0.03563533 -0.9993649
vn 0 -0.03563533 -0.9993649
vn 0.6747758 -0.1538217 -0.7218146
vn 0.6747758 -0.1538217 -0.7218146
vn 0.6747758 -0.1538217 -0.7218146
vn 0.6747758 -0.1538217 -0.7218146
vn 0.6766125 -0.3927278 0.6228647
vn 0.6766126 -0.3927278 0.6228647
vn 0.6766126 -0.3927278 0.6228647
vn 0.6766125 -0.3927277 0.6228647
vn 5.101704E-07 -0.3771186 0.926165
vn 5.101704E-07 -0.3771185 0.926165
vn 5.101704E-07 -0.3771186 0.926165
vn 5.101704E-07 -0.3771185 0.926165
vn -0.6785086 -0.3918444 0.6213566
vn -0.6785086 -0.3918444 0.6213566
vn -0.6785086 -0.3918444 0.6213566
vn -0.6785086 -0.3918444 0.6213566
vn -0.9760711 -0.2138751 -0.03927593
vn -0.9760711 -0.213875 -0.03927593
vn -0.9760711 -0.2138751 -0.03927593
vn -0.9760711 -0.2138751 -0.03927593
vn 0.9760638 -0.2133179 -0.04236657
vn 0.9760638 -0.2133179 -0.04236656
vn 0.9760637 -0.2133179 -0.04236657
vn 0.9760638 -0.2133179 -0.04236657
g obj_demonworld_schoolflag_light_0
f 3/3/3 2/2/2 1/1/1
f 4/4/4 3/3/3 1/1/1
f 7/7/7 6/6/6 5/5/5
f 8/8/8 7/7/7 5/5/5
f 11/11/11 10/10/10 9/9/9
f 12/12/12 11/11/11 9/9/9
f 15/15/15 14/14/14 13/13/13
f 16/16/16 15/15/15 13/13/13
f 19/19/19 18/18/18 17/17/17
f 20/20/20 19/19/19 17/17/17
f 23/23/23 22/22/22 21/21/21
f 24/24/24 23/23/23 21/21/21
f 27/27/27 26/26/26 25/25/25
f 28/28/28 27/27/27 25/25/25
f 31/31/31 30/30/30 29/29/29
f 32/32/32 31/31/31 29/29/29
f 35/35/35 34/34/34 33/33/33
f 36/36/36 35/35/35 33/33/33
f 39/39/39 38/38/38 37/37/37
f 40/40/40 39/39/39 37/37/37
f 43/43/43 42/42/42 41/41/41
f 44/44/44 43/43/43 41/41/41
f 47/47/47 46/46/46 45/45/45
f 48/48/48 47/47/47 45/45/45
f 51/51/51 50/50/50 49/49/49
f 52/52/52 51/51/51 49/49/49
f 55/55/55 54/54/54 53/53/53
f 56/56/56 55/55/55 53/53/53
f 59/59/59 58/58/58 57/57/57
f 60/60/60 59/59/59 57/57/57
f 63/63/63 62/62/62 61/61/61
f 64/64/64 63/63/63 61/61/61
