g obj_demonworld_fence_S
v 0.1236814 0.4019623 -0.01350612
v -0.1414444 0.418002 -0.1176802
v 0.1236814 0.418002 -0.1176802
v -0.1414444 0.4019623 -0.01350612
v 0.1236814 0.2652464 -0.1485262
v -0.1414444 0.418002 -0.1176802
v -0.1414444 0.2652464 -0.1485262
v 0.1236814 0.418002 -0.1176802
v -0.2783614 0.4019623 -0.01350612
v -0.4999997 0.418002 -0.1176802
v -0.2783614 0.418002 -0.1176802
v -0.4999997 0.4019623 -0.01350612
v -0.2783614 0.2652464 -0.1485262
v -0.4999997 0.418002 -0.1176802
v -0.4999997 0.2652464 -0.1485262
v -0.2783614 0.418002 -0.1176802
v 0.5000004 0.4019623 -0.01350612
v 0.2801858 0.418002 -0.1176802
v 0.5000004 0.418002 -0.1176802
v 0.2801858 0.4019623 -0.01350612
v 0.5000004 0.2652464 -0.1485262
v 0.2801858 0.418002 -0.1176802
v 0.2801858 0.2652464 -0.1485262
v 0.5000004 0.418002 -0.1176802
v 0.1236814 0.2492067 -0.04435222
v -0.1414444 0.4019623 -0.01350612
v 0.1236814 0.4019623 -0.01350612
v -0.1414444 0.2492067 -0.04435222
v -0.2783614 0.2492067 -0.04435222
v -0.4999997 0.4019623 -0.01350612
v -0.2783614 0.4019623 -0.01350612
v -0.4999997 0.2492067 -0.04435222
v 0.5000004 0.2492067 -0.04435222
v 0.2801858 0.4019623 -0.01350612
v 0.5000004 0.4019623 -0.01350612
v 0.2801858 0.2492067 -0.04435222
v -0.3806489 -0.02978298 -0.1017216
v -0.3668971 -0.006520462 -0.2267753
v -0.3806489 -0.009819641 -0.2090398
v -0.1358793 -0.009819641 -0.2090398
v -0.149631 -0.006520462 -0.2267753
v -0.149631 -0.0330822 -0.08398609
v -0.3668971 -0.0330822 -0.08398609
v -0.1358793 -0.02978298 -0.1017216
v -0.413186 0.5262823 -0.09786872
v -0.258264 0.6823004 0.05349766
v -0.413186 0.5097584 0.009449477
v -0.258264 0.6988242 -0.05382044
v -0.4083503 0.511763 -0.1190875
v -0.258264 0.6807807 -0.07575091
v -0.3668971 -0.0330822 -0.08398609
v -0.1081778 0.4897776 0.02370168
v -0.149631 -0.0330822 -0.08398609
v -0.258264 0.6587953 0.06703832
v -0.4083503 0.4897776 0.02370168
v -0.1358793 -0.02978298 -0.1017216
v -0.08917861 0.5004731 -0.1030804
v -0.1358793 -0.009819641 -0.2090398
v -0.08917861 0.4839493 0.004237795
v -0.149631 -0.0330822 -0.08398609
v -0.1081778 0.4897776 0.02370168
v -0.1033421 0.5097584 0.009449477
v -0.1033421 0.5262823 -0.09786872
v -0.149631 -0.006520462 -0.2267753
v -0.4083503 0.511763 -0.1190875
v -0.3668971 -0.006520462 -0.2267753
v -0.258264 0.6807807 -0.07575091
v -0.1081778 0.511763 -0.1190875
v -0.258264 0.6988242 -0.05382044
v -0.1033421 0.5097584 0.009449477
v -0.258264 0.6823004 0.05349766
v -0.1033421 0.5262823 -0.09786872
v -0.258264 0.6807807 -0.07575091
v -0.1081778 0.511763 -0.1190875
v -0.4273495 0.5004731 -0.1030804
v -0.4083503 0.511763 -0.1190875
v -0.413186 0.5262823 -0.09786872
v -0.3668971 -0.006520462 -0.2267753
v -0.3806489 -0.009819641 -0.2090398
v -0.1081778 0.511763 -0.1190875
v -0.08917861 0.5004731 -0.1030804
v -0.1033421 0.5262823 -0.09786872
v -0.1358793 -0.009819641 -0.2090398
v -0.149631 -0.006520462 -0.2267753
v -0.413186 0.5097584 0.009449477
v -0.258264 0.6587953 0.06703832
v -0.4083503 0.4897776 0.02370168
v -0.258264 0.6823004 0.05349766
v -0.1081778 0.4897776 0.02370168
v -0.258264 0.6823004 0.05349766
v -0.1033421 0.5097584 0.009449477
v -0.258264 0.6587953 0.06703832
v -0.3806489 -0.02978298 -0.1017216
v -0.4083503 0.4897776 0.02370168
v -0.3668971 -0.0330822 -0.08398609
v -0.4273495 0.4839493 0.004237871
v -0.413186 0.5097584 0.009449477
v -0.3806489 -0.009819641 -0.2090398
v -0.413186 0.5262823 -0.09786872
v -0.4273495 0.5004731 -0.1030804
v 0.1162134 -0.02978298 -0.1017216
v 0.1298076 -0.006520462 -0.2267753
v 0.1162134 -0.009819641 -0.2090398
v 0.3581788 -0.009819641 -0.2090398
v 0.3445846 -0.006520462 -0.2267753
v 0.3445846 -0.0330822 -0.08398609
v 0.1298076 -0.0330822 -0.08398609
v 0.3581788 -0.02978298 -0.1017216
v 0.08227424 0.5262823 -0.09786872
v 0.2371962 0.6823004 0.05349774
v 0.08227424 0.5097584 0.009449477
v 0.2371962 0.6988242 -0.05382044
v 0.08710991 0.511763 -0.1190875
v 0.2371962 0.6807807 -0.07575091
v 0.1298076 -0.0330822 -0.08398609
v 0.3872824 0.4897776 0.02370168
v 0.3445846 -0.0330822 -0.08398609
v 0.2371962 0.6587953 0.06703832
v 0.08710991 0.4897776 0.02370168
v 0.3581788 -0.02978298 -0.1017216
v 0.4062816 0.5004731 -0.1030804
v 0.3581788 -0.009819641 -0.2090398
v 0.4062816 0.4839493 0.004237795
v 0.3445846 -0.0330822 -0.08398609
v 0.3872824 0.4897776 0.02370168
v 0.3921181 0.5097584 0.009449477
v 0.3921181 0.5262823 -0.09786872
v 0.3445846 -0.006520462 -0.2267753
v 0.08710991 0.511763 -0.1190875
v 0.1298076 -0.006520462 -0.2267753
v 0.2371962 0.6807807 -0.07575091
v 0.3872824 0.511763 -0.1190875
v 0.2371962 0.6988242 -0.05382044
v 0.3921181 0.5097584 0.009449477
v 0.2371962 0.6823004 0.05349774
v 0.3921181 0.5262823 -0.09786872
v 0.2371962 0.6807807 -0.07575091
v 0.3872824 0.511763 -0.1190875
v 0.06811065 0.5004731 -0.1030804
v 0.08710991 0.511763 -0.1190875
v 0.08227424 0.5262823 -0.09786872
v 0.1298076 -0.006520462 -0.2267753
v 0.1162134 -0.009819641 -0.2090398
v 0.3872824 0.511763 -0.1190875
v 0.4062816 0.5004731 -0.1030804
v 0.3921181 0.5262823 -0.09786872
v 0.3581788 -0.009819641 -0.2090398
v 0.3445846 -0.006520462 -0.2267753
v 0.08227424 0.5097584 0.009449477
v 0.2371962 0.6587953 0.06703832
v 0.08710991 0.4897776 0.02370168
v 0.2371962 0.6823004 0.05349774
v 0.3872824 0.4897776 0.02370168
v 0.2371962 0.6823004 0.05349774
v 0.3921181 0.5097584 0.009449477
v 0.2371962 0.6587953 0.06703832
v 0.1162134 -0.02978298 -0.1017216
v 0.08710991 0.4897776 0.02370168
v 0.1298076 -0.0330822 -0.08398609
v 0.06811065 0.4839493 0.004237871
v 0.08227424 0.5097584 0.009449477
v 0.1162134 -0.009819641 -0.2090398
v 0.08227424 0.5262823 -0.09786872
v 0.06811065 0.5004731 -0.1030804
vt 0.306322 0.8308215
vt 0.3109764 0.8286684
vt 0.3109764 0.8308215
vt 0.306322 0.8286684
vt 0.3247014 0.8308215
vt 0.3109764 0.8286684
vt 0.3247014 0.8286684
vt 0.3109764 0.8308215
vt 0.306322 0.8308215
vt 0.3109764 0.8286684
vt 0.3109764 0.8308215
vt 0.306322 0.8286684
vt 0.3247014 0.8308215
vt 0.3109764 0.8286684
vt 0.3247014 0.8286684
vt 0.3109764 0.8308215
vt 0.306322 0.8308215
vt 0.3109764 0.8286684
vt 0.3109764 0.8308215
vt 0.306322 0.8286684
vt 0.3247014 0.8308215
vt 0.3109764 0.8286684
vt 0.3247014 0.8286684
vt 0.3109764 0.8308215
vt 0.3247014 0.8308215
vt 0.3109764 0.8286684
vt 0.3109764 0.8308215
vt 0.3247014 0.8286684
vt 0.3247014 0.8308215
vt 0.3109764 0.8286684
vt 0.3109764 0.8308215
vt 0.3247014 0.8286684
vt 0.3247014 0.8308215
vt 0.3109764 0.8286684
vt 0.3109764 0.8308215
vt 0.3247014 0.8286684
vt 2.482111 1.904731
vt 2.425929 2.780523
vt 2.482111 2.656315
vt 1.482111 2.656315
vt 1.538294 2.780523
vt 1.538294 1.780523
vt 2.425929 1.780523
vt 1.482111 1.904731
vt 0.3318766 0.8346977
vt 0.3188514 0.836881
vt 0.3318766 0.836881
vt 0.3188514 0.8346977
vt 0.3318766 0.8327088
vt 0.3188514 0.8327088
vt 0.3961974 0.594245
vt 0.4220266 0.6437063
vt 0.4220278 0.594245
vt 0.4091115 0.6511745
vt 0.396196 0.6437063
vt 0.4287302 0.5936576
vt 0.4239592 0.6470004
vt 0.4239591 0.5936576
vt 0.4287302 0.6470004
vt 0.4321194 0.5936576
vt 0.4321194 0.6470004
vt 0.4287302 0.6515013
vt 0.4239592 0.6515013
vt 0.4220278 0.594245
vt 0.3961961 0.6437063
vt 0.3961974 0.594245
vt 0.4091114 0.6511744
vt 0.4220266 0.6437063
vt 0.3188514 0.8346977
vt 0.305826 0.836881
vt 0.3188514 0.836881
vt 0.305826 0.8346977
vt 0.3188514 0.8327088
vt 0.3058261 0.8327088
vt 0.4287302 0.6470004
vt 0.4321194 0.6470004
vt 0.4287302 0.6515013
vt 0.4321194 0.5936576
vt 0.4287302 0.5936576
vt 0.4321194 0.6470004
vt 0.4287302 0.6470004
vt 0.4287302 0.6515013
vt 0.4287302 0.5936576
vt 0.4321194 0.5936576
vt 0.305826 0.8348921
vt 0.3188513 0.836881
vt 0.305826 0.836881
vt 0.3188513 0.8348921
vt 0.3318766 0.836881
vt 0.3188513 0.8348921
vt 0.3318766 0.8348921
vt 0.3188513 0.836881
vt 0.4287302 0.5936576
vt 0.4321194 0.6470004
vt 0.4321194 0.5936576
vt 0.4287302 0.6470004
vt 0.4287302 0.6515013
vt 0.4239591 0.5936576
vt 0.4239592 0.6515013
vt 0.4239592 0.6470004
vt 2.482111 1.904731
vt 2.425929 2.780523
vt 2.482111 2.656315
vt 1.482111 2.656315
vt 1.538294 2.780523
vt 1.538294 1.780523
vt 2.425929 1.780523
vt 1.482111 1.904731
vt 0.305826 0.8346977
vt 0.3188513 0.836881
vt 0.305826 0.836881
vt 0.3188513 0.8346977
vt 0.305826 0.8327088
vt 0.3188513 0.8327088
vt 0.3961974 0.594245
vt 0.4220266 0.6437063
vt 0.4220278 0.594245
vt 0.4091115 0.6511745
vt 0.396196 0.6437063
vt 0.4287302 0.5936576
vt 0.4239592 0.6470004
vt 0.4239591 0.5936576
vt 0.4287302 0.6470004
vt 0.4321194 0.5936576
vt 0.4321194 0.6470004
vt 0.4287302 0.6515013
vt 0.4239592 0.6515013
vt 0.4220278 0.594245
vt 0.3961961 0.6437063
vt 0.3961974 0.594245
vt 0.4091114 0.6511744
vt 0.4220266 0.6437063
vt 0.3188513 0.8346977
vt 0.3318767 0.836881
vt 0.3188513 0.836881
vt 0.3318766 0.8346977
vt 0.3188513 0.8327088
vt 0.3318766 0.8327088
vt 0.4287302 0.6470004
vt 0.4321194 0.6470004
vt 0.4287302 0.6515013
vt 0.4321194 0.5936576
vt 0.4287302 0.5936576
vt 0.4321194 0.6470004
vt 0.4287302 0.6470004
vt 0.4287302 0.6515013
vt 0.4287302 0.5936576
vt 0.4321194 0.5936576
vt 0.305826 0.8348921
vt 0.3188513 0.836881
vt 0.305826 0.836881
vt 0.3188513 0.8348921
vt 0.3318766 0.836881
vt 0.3188513 0.8348921
vt 0.3318766 0.8348921
vt 0.3188513 0.836881
vt 0.4287302 0.5936576
vt 0.4321194 0.6470004
vt 0.4321194 0.5936576
vt 0.4287302 0.6470004
vt 0.4287302 0.6515013
vt 0.4239591 0.5936576
vt 0.4239592 0.6515013
vt 0.4239592 0.6470004
vn 0 0.9883533 0.1521769
vn 0 0.9883533 0.1521769
vn 0 0.9883533 0.1521769
vn 0 0.9883533 0.1521769
vn 0 0.1979351 -0.9802152
vn 0 0.1979351 -0.9802152
vn 0 0.1979351 -0.9802152
vn 0 0.1979351 -0.9802152
vn 0 0.9883533 0.1521769
vn 0 0.9883533 0.1521769
vn 0 0.9883533 0.1521769
vn 0 0.9883533 0.1521769
vn 0 0.1979351 -0.9802152
vn 0 0.1979351 -0.9802152
vn 0 0.1979351 -0.9802152
vn 0 0.1979351 -0.9802152
vn 0 0.9883533 0.1521769
vn 0 0.9883533 0.1521769
vn 0 0.9883533 0.1521769
vn 0 0.9883533 0.1521769
vn 0 0.1979351 -0.9802152
vn 0 0.1979351 -0.9802152
vn 0 0.1979351 -0.9802152
vn 0 0.1979351 -0.9802152
vn 0 -0.1979359 0.980215
vn 0 -0.1979359 0.980215
vn 0 -0.1979359 0.980215
vn 0 -0.1979359 0.980215
vn 0 -0.1979359 0.980215
vn 0 -0.1979359 0.980215
vn 0 -0.1979359 0.980215
vn 0 -0.1979359 0.980215
vn 0 -0.1979359 0.980215
vn 0 -0.1979359 0.980215
vn 0 -0.1979359 0.980215
vn 0 -0.1979359 0.980215
vn 0 -0.9831345 -0.1828839
vn 1.851417E-07 -0.9831347 -0.1828829
vn 8.894257E-07 -0.9831347 -0.1828828
vn 0 -0.9831346 -0.1828832
vn 0 -0.9831346 -0.1828835
vn 8.051212E-07 -0.9831346 -0.1828832
vn 0 -0.9831342 -0.1828857
vn 3.859472E-06 -0.9831347 -0.1828828
vn -0.7582039 0.6077815 -0.2360695
vn -0.7399131 0.5753789 0.3485222
vn -0.7827192 0.4787193 0.3977167
vn -0.7216707 0.6797258 -0.1310116
vn -0.6706883 0.4035247 -0.6223705
vn -0.5657852 0.6367374 -0.5238822
vn -0.0006532578 -0.2053308 0.9786925
vn 0.0299261 -0.2158189 0.9759747
vn 0 -0.2017251 0.9794422
vn 0.001557188 -0.2134936 0.9769433
vn -0.05096997 -0.2053378 0.977363
vn 0.9428256 -0.1476079 0.2988173
vn 0.9185615 0.2281313 -0.3228018
vn 0.9407135 -0.01082337 -0.3390297
vn 0.9212839 0.0939526 0.377371
vn 0.7889973 -0.1918471 0.5836762
vn 0.6912338 0.1434467 0.7082506
vn 0.7815454 0.4793327 0.3992831
vn 0.7591797 0.6069067 -0.2351818
vn -0.0006422519 0.2069518 -0.9783509
vn 0.02870961 0.2170673 -0.9757344
vn 0 0.203433 -0.9790888
vn 0.001506585 0.2148422 -0.9766476
vn -0.04908453 0.2069496 -0.9771195
vn 0.7209483 0.6806117 -0.1303889
vn 0.7815454 0.4793327 0.3992831
vn 0.7410877 0.5736938 0.3488043
vn 0.7591797 0.6069067 -0.2351818
vn 0.5612602 0.6382322 -0.5269219
vn 0.6723933 0.3998521 -0.622901
vn -0.9190008 0.2297144 -0.3204198
vn -0.6706883 0.4035247 -0.6223705
vn -0.7582039 0.6077815 -0.2360695
vn -0.7903259 0.05464965 -0.6102445
vn -0.9414104 -0.01594101 -0.3368861
vn 0.6723933 0.3998521 -0.622901
vn 0.9185615 0.2281313 -0.3228018
vn 0.7591797 0.6069067 -0.2351818
vn 0.9407135 -0.01082337 -0.3390297
vn 0.7943035 0.06203967 -0.6043451
vn -0.7827192 0.4787193 0.3977167
vn -0.6249537 0.3878388 0.6775057
vn -0.6929861 0.1394056 0.7073446
vn -0.7399131 0.5753789 0.3485222
vn 0.6912338 0.1434467 0.7082506
vn 0.7410877 0.5736938 0.3488043
vn 0.7815454 0.4793327 0.3992831
vn 0.6305138 0.3874438 0.672562
vn -0.9423362 -0.1432139 0.3024771
vn -0.6929861 0.1394056 0.7073446
vn -0.7931454 -0.1825503 0.58103
vn -0.9209286 0.09118713 0.3789135
vn -0.7827192 0.4787193 0.3977167
vn -0.9414104 -0.01594101 -0.3368861
vn -0.7582039 0.6077815 -0.2360695
vn -0.9190008 0.2297144 -0.3204198
vn 0 -0.9831345 -0.1828839
vn 1.860452E-07 -0.9831347 -0.1828829
vn 8.997335E-07 -0.9831347 -0.1828828
vn 0 -0.9831346 -0.1828832
vn 0 -0.9831346 -0.1828835
vn 8.090652E-07 -0.9831346 -0.1828832
vn 0 -0.9831342 -0.1828857
vn 3.904212E-06 -0.9831347 -0.1828828
vn -0.7582039 0.6077814 -0.2360695
vn -0.739913 0.5753786 0.3485228
vn -0.7827192 0.4787193 0.3977166
vn -0.7216707 0.6797258 -0.1310117
vn -0.6706857 0.4029038 -0.6227754
vn -0.5657852 0.6367374 -0.5238822
vn -0.0006457556 -0.2053308 0.9786925
vn 0.03003616 -0.2158019 0.9759752
vn 0 -0.2017251 0.9794422
vn 0.0015398 -0.2134884 0.9769444
vn -0.05084402 -0.2054456 0.977347
vn 0.9434546 -0.1496278 0.2958121
vn 0.9187598 0.2268936 -0.3231092
vn 0.9414045 -0.0137321 -0.337
vn 0.9214644 0.09278196 0.3772199
vn 0.792089 -0.1933148 0.5789858
vn 0.6912094 0.1427549 0.7084142
vn 0.7815455 0.4793326 0.399283
vn 0.7591797 0.6069067 -0.2351818
vn -0.0006348778 0.2069519 -0.9783509
vn 0.02881592 0.2170513 -0.9757347
vn 0 0.2034329 -0.9790888
vn 0.001489775 0.2148372 -0.9766487
vn -0.04896227 0.2070541 -0.9771036
vn 0.7209483 0.6806117 -0.130389
vn 0.7815455 0.4793326 0.399283
vn 0.7410876 0.5736936 0.348805
vn 0.7591797 0.6069067 -0.2351818
vn 0.5612602 0.6382322 -0.5269219
vn 0.6724311 0.3991486 -0.6233113
vn -0.9192141 0.2285192 -0.3206626
vn -0.6706857 0.4029038 -0.6227754
vn -0.7582039 0.6077814 -0.2360695
vn -0.793455 0.05140414 -0.6064542
vn -0.9421051 -0.01902335 -0.334778
vn 0.6724311 0.3991486 -0.6233113
vn 0.9187598 0.2268936 -0.3231092
vn 0.7591797 0.6069067 -0.2351818
vn 0.9414045 -0.0137321 -0.337
vn 0.7975606 0.0590326 -0.6003434
vn -0.7827192 0.4787193 0.3977166
vn -0.624953 0.3878374 0.6775071
vn -0.6929981 0.1386411 0.7074831
vn -0.739913 0.5753786 0.3485228
vn 0.6912094 0.1427549 0.7084142
vn 0.7410876 0.5736936 0.348805
vn 0.7815455 0.4793326 0.399283
vn 0.6305129 0.3874426 0.6725636
vn -0.9429677 -0.1450923 0.2995999
vn -0.6929981 0.1386411 0.7074831
vn -0.7963668 -0.183714 0.576237
vn -0.9210965 0.08994228 0.378803
vn -0.7827192 0.4787193 0.3977166
vn -0.9421051 -0.01902335 -0.334778
vn -0.7582039 0.6077814 -0.2360695
vn -0.9192141 0.2285192 -0.3206626
g obj_demonworld_fence_S_0
f 3/3/3 2/2/2 1/1/1
f 4/4/4 1/1/1 2/2/2
f 7/7/7 6/6/6 5/5/5
f 8/8/8 5/5/5 6/6/6
f 11/11/11 10/10/10 9/9/9
f 12/12/12 9/9/9 10/10/10
f 15/15/15 14/14/14 13/13/13
f 16/16/16 13/13/13 14/14/14
f 19/19/19 18/18/18 17/17/17
f 20/20/20 17/17/17 18/18/18
f 23/23/23 22/22/22 21/21/21
f 24/24/24 21/21/21 22/22/22
f 27/27/27 26/26/26 25/25/25
f 28/28/28 25/25/25 26/26/26
f 31/31/31 30/30/30 29/29/29
f 32/32/32 29/29/29 30/30/30
f 35/35/35 34/34/34 33/33/33
f 36/36/36 33/33/33 34/34/34
f 39/39/39 38/38/38 37/37/37
f 38/38/38 40/40/40 37/37/37
f 41/41/41 40/40/40 38/38/38
f 40/40/40 42/42/42 37/37/37
f 37/37/37 42/42/42 43/43/43
f 44/44/44 42/42/42 40/40/40
f 47/47/47 46/46/46 45/45/45
f 48/48/48 45/45/45 46/46/46
f 45/45/45 48/48/48 49/49/49
f 50/50/50 49/49/49 48/48/48
f 53/53/53 52/52/52 51/51/51
f 52/52/52 54/54/54 51/51/51
f 54/54/54 55/55/55 51/51/51
f 58/58/58 57/57/57 56/56/56
f 59/59/59 56/56/56 57/57/57
f 56/56/56 59/59/59 60/60/60
f 61/61/61 60/60/60 59/59/59
f 62/62/62 61/61/61 59/59/59
f 59/59/59 57/57/57 62/62/62
f 63/63/63 62/62/62 57/57/57
f 66/66/66 65/65/65 64/64/64
f 65/65/65 67/67/67 64/64/64
f 67/67/67 68/68/68 64/64/64
f 71/71/71 70/70/70 69/69/69
f 72/72/72 69/69/69 70/70/70
f 69/69/69 72/72/72 73/73/73
f 74/74/74 73/73/73 72/72/72
f 77/77/77 76/76/76 75/75/75
f 76/76/76 78/78/78 75/75/75
f 79/79/79 75/75/75 78/78/78
f 82/82/82 81/81/81 80/80/80
f 81/81/81 83/83/83 80/80/80
f 84/84/84 80/80/80 83/83/83
f 87/87/87 86/86/86 85/85/85
f 88/88/88 85/85/85 86/86/86
f 91/91/91 90/90/90 89/89/89
f 92/92/92 89/89/89 90/90/90
f 95/95/95 94/94/94 93/93/93
f 96/96/96 93/93/93 94/94/94
f 97/97/97 96/96/96 94/94/94
f 93/93/93 96/96/96 98/98/98
f 97/97/97 99/99/99 96/96/96
f 100/100/100 98/98/98 96/96/96
f 100/100/100 96/96/96 99/99/99
f 103/103/103 102/102/102 101/101/101
f 102/102/102 104/104/104 101/101/101
f 105/105/105 104/104/104 102/102/102
f 104/104/104 106/106/106 101/101/101
f 101/101/101 106/106/106 107/107/107
f 108/108/108 106/106/106 104/104/104
f 111/111/111 110/110/110 109/109/109
f 112/112/112 109/109/109 110/110/110
f 109/109/109 112/112/112 113/113/113
f 114/114/114 113/113/113 112/112/112
f 117/117/117 116/116/116 115/115/115
f 116/116/116 118/118/118 115/115/115
f 118/118/118 119/119/119 115/115/115
f 122/122/122 121/121/121 120/120/120
f 123/123/123 120/120/120 121/121/121
f 120/120/120 123/123/123 124/124/124
f 125/125/125 124/124/124 123/123/123
f 126/126/126 125/125/125 123/123/123
f 123/123/123 121/121/121 126/126/126
f 127/127/127 126/126/126 121/121/121
f 130/130/130 129/129/129 128/128/128
f 129/129/129 131/131/131 128/128/128
f 131/131/131 132/132/132 128/128/128
f 135/135/135 134/134/134 133/133/133
f 136/136/136 133/133/133 134/134/134
f 133/133/133 136/136/136 137/137/137
f 138/138/138 137/137/137 136/136/136
f 141/141/141 140/140/140 139/139/139
f 140/140/140 142/142/142 139/139/139
f 143/143/143 139/139/139 142/142/142
f 146/146/146 145/145/145 144/144/144
f 145/145/145 147/147/147 144/144/144
f 148/148/148 144/144/144 147/147/147
f 151/151/151 150/150/150 149/149/149
f 152/152/152 149/149/149 150/150/150
f 155/155/155 154/154/154 153/153/153
f 156/156/156 153/153/153 154/154/154
f 159/159/159 158/158/158 157/157/157
f 160/160/160 157/157/157 158/158/158
f 161/161/161 160/160/160 158/158/158
f 157/157/157 160/160/160 162/162/162
f 161/161/161 163/163/163 160/160/160
f 164/164/164 162/162/162 160/160/160
f 164/164/164 160/160/160 163/163/163
