g obj_demonworld_fence_end
v 0.1157796 -0.02978302 -0.1017216
v 0.1294223 -0.006520462 -0.2267753
v 0.1157796 -0.009819641 -0.2090398
v 0.3586079 -0.009819641 -0.2090398
v 0.3449652 -0.006520462 -0.2267753
v 0.3449652 -0.0330822 -0.08398609
v 0.1294223 -0.0330822 -0.08398609
v 0.3586079 -0.02978302 -0.1017216
v 0.08227188 0.5262823 -0.09786883
v 0.2371937 0.6823004 0.05349759
v 0.08227188 0.5097584 0.009449401
v 0.2371937 0.6988242 -0.0538206
v 0.08710754 0.511763 -0.1190876
v 0.2371937 0.6807807 -0.07575108
v 0.1294223 -0.0330822 -0.08398609
v 0.38728 0.4897777 0.02370156
v 0.3449652 -0.0330822 -0.08398609
v 0.2371937 0.6587953 0.06703817
v 0.08710754 0.4897776 0.0237016
v 0.3586079 -0.02978302 -0.1017216
v 0.4062793 0.5004731 -0.1030805
v 0.3586079 -0.009819641 -0.2090398
v 0.4062793 0.4839493 0.004237718
v 0.3449652 -0.0330822 -0.08398609
v 0.38728 0.4897777 0.02370156
v 0.3921156 0.5097585 0.009449401
v 0.3921156 0.5262823 -0.09786883
v 0.3449652 -0.006520462 -0.2267753
v 0.08710754 0.511763 -0.1190876
v 0.1294223 -0.006520462 -0.2267753
v 0.2371937 0.6807807 -0.07575108
v 0.38728 0.511763 -0.1190876
v 0.2371937 0.6988242 -0.0538206
v 0.3921156 0.5097585 0.009449401
v 0.2371937 0.6823004 0.05349759
v 0.3921156 0.5262823 -0.09786883
v 0.2371937 0.6807807 -0.07575108
v 0.38728 0.511763 -0.1190876
v 0.5000004 0.4019623 -0.01350612
v 0.2801858 0.418002 -0.1176802
v 0.5000004 0.418002 -0.1176802
v 0.2801858 0.4019622 -0.01350612
v 0.5000004 0.2652464 -0.1485262
v 0.2801858 0.418002 -0.1176802
v 0.2801858 0.2652464 -0.1485262
v 0.5000004 0.418002 -0.1176802
v 0.5000004 0.2492067 -0.04435222
v 0.2801858 0.4019622 -0.01350612
v 0.5000004 0.4019623 -0.01350612
v 0.2801858 0.2492067 -0.04435222
v 0.06810836 0.5004731 -0.1030805
v 0.08710754 0.511763 -0.1190876
v 0.08227188 0.5262823 -0.09786883
v 0.1294223 -0.006520462 -0.2267753
v 0.1157796 -0.009819641 -0.2090398
v 0.38728 0.511763 -0.1190876
v 0.4062793 0.5004731 -0.1030805
v 0.3921156 0.5262823 -0.09786883
v 0.3586079 -0.009819641 -0.2090398
v 0.3449652 -0.006520462 -0.2267753
v 0.08227188 0.5097584 0.009449401
v 0.2371937 0.6587953 0.06703817
v 0.08710754 0.4897776 0.0237016
v 0.2371937 0.6823004 0.05349759
v 0.38728 0.4897777 0.02370156
v 0.2371937 0.6823004 0.05349759
v 0.3921156 0.5097585 0.009449401
v 0.2371937 0.6587953 0.06703817
v 0.1157796 -0.02978302 -0.1017216
v 0.08710754 0.4897776 0.0237016
v 0.1294223 -0.0330822 -0.08398609
v 0.06810836 0.4839493 0.004237718
v 0.08227188 0.5097584 0.009449401
v 0.1157796 -0.009819641 -0.2090398
v 0.08227188 0.5262823 -0.09786883
v 0.06810836 0.5004731 -0.1030805
v -0.3787492 -0.02978294 -0.1017216
v -0.3651065 -0.006520385 -0.2267753
v -0.3787492 -0.009819564 -0.2090398
v -0.1359209 -0.009819564 -0.2090398
v -0.1495636 -0.006520385 -0.2267753
v -0.1495636 -0.0330822 -0.08398609
v -0.3651065 -0.0330822 -0.08398609
v -0.1359209 -0.02978294 -0.1017216
v -0.4122569 0.5262823 -0.09786883
v -0.257335 0.6823004 0.05349759
v -0.4122569 0.5097584 0.009449401
v -0.257335 0.6988242 -0.0538206
v -0.4074213 0.5117631 -0.1190876
v -0.257335 0.6807807 -0.07575108
v -0.3651065 -0.0330822 -0.08398609
v -0.1072488 0.4897777 0.02370156
v -0.1495636 -0.0330822 -0.08398609
v -0.257335 0.6587953 0.06703817
v -0.4074213 0.4897776 0.0237016
v -0.1359209 -0.02978294 -0.1017216
v -0.08824951 0.5004733 -0.1030805
v -0.1359209 -0.009819564 -0.2090398
v -0.08824951 0.4839493 0.004237718
v -0.1495636 -0.0330822 -0.08398609
v -0.1072488 0.4897777 0.02370156
v -0.1024132 0.5097585 0.009449401
v -0.1024132 0.5262823 -0.09786883
v -0.1495636 -0.006520385 -0.2267753
v -0.4074213 0.5117631 -0.1190876
v -0.3651065 -0.006520385 -0.2267753
v -0.257335 0.6807807 -0.07575108
v -0.1072488 0.5117631 -0.1190876
v -0.257335 0.6988242 -0.0538206
v -0.1024132 0.5097585 0.009449401
v -0.257335 0.6823004 0.05349759
v -0.1024132 0.5262823 -0.09786883
v -0.257335 0.6807807 -0.07575108
v -0.1072488 0.5117631 -0.1190876
v 0.09936783 0.4019622 -0.01350612
v -0.1204468 0.418002 -0.1176802
v 0.09936783 0.418002 -0.1176802
v -0.1204468 0.4019622 -0.01350612
v 0.09936783 0.2652465 -0.1485263
v -0.1204468 0.418002 -0.1176802
v -0.1204468 0.2652465 -0.1485263
v 0.09936783 0.418002 -0.1176802
v 0.09936783 0.2492066 -0.04435237
v -0.1204468 0.4019622 -0.01350612
v 0.09936783 0.4019622 -0.01350612
v -0.1204468 0.2492066 -0.04435237
v -0.4264204 0.5004733 -0.1030805
v -0.4074213 0.5117631 -0.1190876
v -0.4122569 0.5262823 -0.09786883
v -0.3651065 -0.006520385 -0.2267753
v -0.3787492 -0.009819564 -0.2090398
v -0.1072488 0.5117631 -0.1190876
v -0.08824951 0.5004733 -0.1030805
v -0.1024132 0.5262823 -0.09786883
v -0.1359209 -0.009819564 -0.2090398
v -0.1495636 -0.006520385 -0.2267753
v -0.4122569 0.5097584 0.009449401
v -0.257335 0.6587953 0.06703817
v -0.4074213 0.4897776 0.0237016
v -0.257335 0.6823004 0.05349759
v -0.1072488 0.4897777 0.02370156
v -0.257335 0.6823004 0.05349759
v -0.1024132 0.5097585 0.009449401
v -0.257335 0.6587953 0.06703817
v -0.3787492 -0.02978294 -0.1017216
v -0.4074213 0.4897776 0.0237016
v -0.3651065 -0.0330822 -0.08398609
v -0.4264204 0.4839493 0.004237718
v -0.4122569 0.5097584 0.009449401
v -0.3787492 -0.009819564 -0.2090398
v -0.4122569 0.5262823 -0.09786883
v -0.4264204 0.5004733 -0.1030805
vt 2.482111 1.904731
vt 2.425929 2.780523
vt 2.482111 2.656315
vt 1.482111 2.656315
vt 1.538294 2.780523
vt 1.538294 1.780523
vt 2.425929 1.780523
vt 1.482111 1.904731
vt 0.305826 0.8346977
vt 0.3188513 0.836881
vt 0.305826 0.836881
vt 0.3188513 0.8346977
vt 0.305826 0.8327088
vt 0.3188513 0.8327088
vt 0.3961974 0.594245
vt 0.4220266 0.6437063
vt 0.4220278 0.594245
vt 0.4091115 0.6511745
vt 0.396196 0.6437063
vt 0.4287302 0.5936576
vt 0.4239592 0.6470004
vt 0.4239591 0.5936576
vt 0.4287302 0.6470004
vt 0.4321194 0.5936576
vt 0.4321194 0.6470004
vt 0.4287302 0.6515013
vt 0.4239592 0.6515013
vt 0.4220278 0.594245
vt 0.3961961 0.6437063
vt 0.3961974 0.594245
vt 0.4091114 0.6511744
vt 0.4220266 0.6437063
vt 0.3188513 0.8346977
vt 0.3318766 0.836881
vt 0.3188513 0.836881
vt 0.3318766 0.8346977
vt 0.3188513 0.8327088
vt 0.3318766 0.8327088
vt 0.306322 0.8308215
vt 0.3109764 0.8286684
vt 0.3109764 0.8308215
vt 0.306322 0.8286684
vt 0.3247014 0.8308215
vt 0.3109764 0.8286684
vt 0.3247014 0.8286684
vt 0.3109764 0.8308215
vt 0.3247014 0.8308215
vt 0.3109764 0.8286684
vt 0.3109764 0.8308215
vt 0.3247014 0.8286684
vt 0.4287302 0.6470004
vt 0.4321194 0.6470004
vt 0.4287302 0.6515013
vt 0.4321194 0.5936576
vt 0.4287302 0.5936576
vt 0.4321194 0.6470004
vt 0.4287302 0.6470004
vt 0.4287302 0.6515013
vt 0.4287302 0.5936576
vt 0.4321194 0.5936576
vt 0.305826 0.8348921
vt 0.3188513 0.836881
vt 0.305826 0.836881
vt 0.3188513 0.8348921
vt 0.3318766 0.836881
vt 0.3188513 0.8348921
vt 0.3318766 0.8348921
vt 0.3188513 0.836881
vt 0.4287302 0.5936576
vt 0.4321194 0.6470004
vt 0.4321194 0.5936576
vt 0.4287302 0.6470004
vt 0.4287302 0.6515013
vt 0.4239591 0.5936576
vt 0.4239592 0.6515013
vt 0.4239592 0.6470004
vt 2.482111 1.904731
vt 2.425929 2.780523
vt 2.482111 2.656315
vt 1.482111 2.656315
vt 1.538294 2.780523
vt 1.538294 1.780523
vt 2.425929 1.780523
vt 1.482111 1.904731
vt 0.3058261 0.8346977
vt 0.3188513 0.836881
vt 0.3058261 0.836881
vt 0.3188513 0.8346977
vt 0.305826 0.8327088
vt 0.3188513 0.8327088
vt 0.3961974 0.594245
vt 0.4220266 0.6437063
vt 0.4220278 0.594245
vt 0.4091115 0.6511745
vt 0.396196 0.6437063
vt 0.4287302 0.5936576
vt 0.4239592 0.6470004
vt 0.4239591 0.5936576
vt 0.4287302 0.6470004
vt 0.4321194 0.5936576
vt 0.4321194 0.6470004
vt 0.4287302 0.6515013
vt 0.4239592 0.6515013
vt 0.4220278 0.594245
vt 0.3961961 0.6437063
vt 0.3961974 0.594245
vt 0.4091114 0.6511744
vt 0.4220266 0.6437063
vt 0.3188513 0.8346977
vt 0.3318766 0.836881
vt 0.3188513 0.836881
vt 0.3318766 0.8346977
vt 0.3188513 0.8327088
vt 0.3318766 0.8327088
vt 0.306322 0.8308215
vt 0.3109764 0.8286684
vt 0.3109764 0.8308215
vt 0.306322 0.8286684
vt 0.3247014 0.8308215
vt 0.3109764 0.8286684
vt 0.3247014 0.8286684
vt 0.3109764 0.8308215
vt 0.3247014 0.8308215
vt 0.3109764 0.8286684
vt 0.3109764 0.8308215
vt 0.3247014 0.8286684
vt 0.4287302 0.6470004
vt 0.4321194 0.6470004
vt 0.4287302 0.6515013
vt 0.4321194 0.5936576
vt 0.4287302 0.5936576
vt 0.4321194 0.6470004
vt 0.4287302 0.6470004
vt 0.4287302 0.6515013
vt 0.4287302 0.5936576
vt 0.4321194 0.5936576
vt 0.305826 0.8348921
vt 0.3188513 0.836881
vt 0.305826 0.836881
vt 0.3188513 0.8348921
vt 0.3318766 0.836881
vt 0.3188513 0.8348921
vt 0.3318766 0.8348921
vt 0.3188513 0.836881
vt 0.4287302 0.5936576
vt 0.4321194 0.6470004
vt 0.4321194 0.5936576
vt 0.4287302 0.6470004
vt 0.4287302 0.6515013
vt 0.4239591 0.5936576
vt 0.4239592 0.6515013
vt 0.4239592 0.6470004
vn 0 -0.9831346 -0.1828832
vn 0 -0.9831346 -0.1828832
vn 3.682192E-07 -0.9831346 -0.1828832
vn 0 -0.9831346 -0.1828833
vn 0 -0.9831346 -0.1828835
vn 0 -0.9831346 -0.1828832
vn 0 -0.9831346 -0.1828833
vn 1.120667E-07 -0.9831346 -0.1828832
vn -0.7582045 0.6077805 -0.2360699
vn -0.7399131 0.5753785 0.3485227
vn -0.78272 0.4787183 0.3977164
vn -0.721671 0.6797256 -0.1310115
vn -0.6706877 0.4030937 -0.6226503
vn -0.5657858 0.6367373 -0.5238817
vn -0.0006479996 -0.2053306 0.9786925
vn 0.03000233 -0.2158069 0.975975
vn 0 -0.2017248 0.9794422
vn 0.001545326 -0.2134898 0.9769441
vn -0.05088243 -0.2054123 0.9773518
vn 0.9432613 -0.1490068 0.2967408
vn 0.9186981 0.2272764 -0.3230161
vn 0.9411917 -0.01283582 -0.3376292
vn 0.921408 0.09314323 0.3772686
vn 0.7911366 -0.1928628 0.5804367
vn 0.6912144 0.1429681 0.7083663
vn 0.7815442 0.4793338 0.399284
vn 0.7591783 0.606908 -0.2351827
vn -0.0006371326 0.2069517 -0.9783509
vn 0.02878292 0.217056 -0.9757347
vn 0 0.2034328 -0.979089
vn 0.00149493 0.2148384 -0.9766484
vn -0.04899944 0.2070219 -0.9771086
vn 0.7209483 0.6806117 -0.1303889
vn 0.7815442 0.4793338 0.399284
vn 0.7410875 0.5736939 0.3488048
vn 0.7591783 0.606908 -0.2351827
vn 0.5612605 0.6382322 -0.5269216
vn 0.6724171 0.399366 -0.6231869
vn 0 0.9883533 0.152177
vn -1.226984E-07 0.9883532 0.1521771
vn 0 0.9883533 0.1521769
vn -1.715204E-07 0.9883532 0.1521772
vn 0 0.1979351 -0.9802152
vn 0 0.1979351 -0.9802152
vn 0 0.1979351 -0.9802152
vn 0 0.1979351 -0.9802152
vn 0 -0.1979359 0.980215
vn 0 -0.1979359 0.980215
vn 0 -0.1979359 0.980215
vn 0 -0.197936 0.980215
vn -0.9191491 0.2288859 -0.320587
vn -0.6706877 0.4030937 -0.6226503
vn -0.7582045 0.6077805 -0.2360699
vn -0.7924917 0.05240609 -0.607627
vn -0.9418915 -0.01807354 -0.3354306
vn 0.6724171 0.399366 -0.6231869
vn 0.9186981 0.2272764 -0.3230161
vn 0.7591783 0.606908 -0.2351827
vn 0.9411917 -0.01283582 -0.3376292
vn 0.796557 0.05996127 -0.6015825
vn -0.78272 0.4787183 0.3977164
vn -0.624953 0.3878374 0.677507
vn -0.6929962 0.1388761 0.7074388
vn -0.7399131 0.5753785 0.3485227
vn 0.6912144 0.1429681 0.7083663
vn 0.7410875 0.5736939 0.3488048
vn 0.7815442 0.4793338 0.399284
vn 0.6305127 0.3874426 0.6725637
vn -0.9427736 -0.1445147 0.3004888
vn -0.6929962 0.1388761 0.7074388
vn -0.7953752 -0.1833557 0.5777188
vn -0.9210458 0.09032439 0.3788352
vn -0.78272 0.4787183 0.3977164
vn -0.9418915 -0.01807354 -0.3354306
vn -0.7582045 0.6077805 -0.2360699
vn -0.9191491 0.2288859 -0.320587
vn 0 -0.9831344 -0.1828848
vn 1.990362E-07 -0.9831346 -0.1828832
vn 9.605716E-07 -0.9831346 -0.1828832
vn 1.144949E-07 -0.9831345 -0.1828837
vn 0 -0.9831345 -0.1828839
vn 1.179382E-06 -0.9831345 -0.1828838
vn 0 -0.9831338 -0.1828874
vn 5.683382E-06 -0.9831346 -0.1828832
vn -0.7582044 0.6077808 -0.236069
vn -0.7399131 0.5753785 0.3485227
vn -0.78272 0.4787183 0.3977164
vn -0.7216709 0.6797257 -0.1310115
vn -0.670688 0.4030945 -0.6226496
vn -0.5657856 0.6367375 -0.5238817
vn -0.0006479996 -0.2053306 0.9786925
vn 0.03000233 -0.2158069 0.975975
vn 0 -0.2017248 0.9794422
vn 0.001545326 -0.2134898 0.9769441
vn -0.05088243 -0.2054123 0.9773518
vn 0.9432613 -0.1490068 0.2967409
vn 0.918698 0.2272769 -0.323016
vn 0.9411916 -0.01283575 -0.3376295
vn 0.921408 0.09314322 0.3772686
vn 0.791137 -0.1928628 0.5804362
vn 0.6912144 0.1429681 0.7083663
vn 0.7815442 0.4793338 0.399284
vn 0.7591782 0.6069085 -0.2351817
vn -0.0006371326 0.2069517 -0.9783509
vn 0.02878299 0.217056 -0.9757347
vn 0 0.2034328 -0.979089
vn 0.001494937 0.2148384 -0.9766484
vn -0.04899954 0.2070218 -0.9771085
vn 0.7209483 0.6806117 -0.1303889
vn 0.7815442 0.4793338 0.399284
vn 0.7410875 0.5736939 0.3488048
vn 0.7591782 0.6069085 -0.2351817
vn 0.5612605 0.6382322 -0.5269215
vn 0.6724173 0.3993667 -0.6231863
vn 0 0.9883532 0.1521777
vn -1.226983E-07 0.9883531 0.1521778
vn 0 0.9883532 0.1521776
vn -1.715203E-07 0.9883531 0.1521779
vn 0 0.197936 -0.980215
vn 0 0.197936 -0.980215
vn 0 0.1979361 -0.980215
vn 0 0.1979361 -0.980215
vn 0 -0.1979368 0.9802147
vn 0 -0.1979368 0.9802147
vn 0 -0.1979368 0.9802147
vn 0 -0.1979368 0.9802147
vn -0.919149 0.2288864 -0.320587
vn -0.670688 0.4030945 -0.6226496
vn -0.7582044 0.6077808 -0.236069
vn -0.792491 0.05240635 -0.6076277
vn -0.9418914 -0.01807342 -0.335431
vn 0.6724173 0.3993667 -0.6231863
vn 0.918698 0.2272769 -0.323016
vn 0.7591782 0.6069085 -0.2351817
vn 0.9411916 -0.01283575 -0.3376295
vn 0.7965564 0.05996149 -0.6015833
vn -0.78272 0.4787183 0.3977164
vn -0.624953 0.3878374 0.677507
vn -0.6929963 0.1388759 0.7074388
vn -0.7399131 0.5753785 0.3485227
vn 0.6912144 0.1429681 0.7083663
vn 0.7410875 0.5736939 0.3488048
vn 0.7815442 0.4793338 0.399284
vn 0.6305127 0.3874426 0.6725637
vn -0.9427736 -0.1445147 0.3004888
vn -0.6929963 0.1388759 0.7074388
vn -0.7953755 -0.1833556 0.5777183
vn -0.9210458 0.09032442 0.3788352
vn -0.78272 0.4787183 0.3977164
vn -0.9418914 -0.01807342 -0.335431
vn -0.7582044 0.6077808 -0.236069
vn -0.919149 0.2288864 -0.320587
g obj_demonworld_fence_end_0
f 3/3/3 2/2/2 1/1/1
f 2/2/2 4/4/4 1/1/1
f 5/5/5 4/4/4 2/2/2
f 4/4/4 6/6/6 1/1/1
f 1/1/1 6/6/6 7/7/7
f 8/8/8 6/6/6 4/4/4
f 11/11/11 10/10/10 9/9/9
f 12/12/12 9/9/9 10/10/10
f 9/9/9 12/12/12 13/13/13
f 14/14/14 13/13/13 12/12/12
f 17/17/17 16/16/16 15/15/15
f 16/16/16 18/18/18 15/15/15
f 18/18/18 19/19/19 15/15/15
f 22/22/22 21/21/21 20/20/20
f 23/23/23 20/20/20 21/21/21
f 20/20/20 23/23/23 24/24/24
f 25/25/25 24/24/24 23/23/23
f 26/26/26 25/25/25 23/23/23
f 23/23/23 21/21/21 26/26/26
f 27/27/27 26/26/26 21/21/21
f 30/30/30 29/29/29 28/28/28
f 29/29/29 31/31/31 28/28/28
f 31/31/31 32/32/32 28/28/28
f 35/35/35 34/34/34 33/33/33
f 36/36/36 33/33/33 34/34/34
f 33/33/33 36/36/36 37/37/37
f 38/38/38 37/37/37 36/36/36
f 41/41/41 40/40/40 39/39/39
f 42/42/42 39/39/39 40/40/40
f 45/45/45 44/44/44 43/43/43
f 46/46/46 43/43/43 44/44/44
f 49/49/49 48/48/48 47/47/47
f 50/50/50 47/47/47 48/48/48
f 53/53/53 52/52/52 51/51/51
f 52/52/52 54/54/54 51/51/51
f 55/55/55 51/51/51 54/54/54
f 58/58/58 57/57/57 56/56/56
f 57/57/57 59/59/59 56/56/56
f 60/60/60 56/56/56 59/59/59
f 63/63/63 62/62/62 61/61/61
f 64/64/64 61/61/61 62/62/62
f 67/67/67 66/66/66 65/65/65
f 68/68/68 65/65/65 66/66/66
f 71/71/71 70/70/70 69/69/69
f 72/72/72 69/69/69 70/70/70
f 73/73/73 72/72/72 70/70/70
f 69/69/69 72/72/72 74/74/74
f 73/73/73 75/75/75 72/72/72
f 76/76/76 74/74/74 72/72/72
f 76/76/76 72/72/72 75/75/75
f 79/79/79 78/78/78 77/77/77
f 78/78/78 80/80/80 77/77/77
f 81/81/81 80/80/80 78/78/78
f 80/80/80 82/82/82 77/77/77
f 77/77/77 82/82/82 83/83/83
f 84/84/84 82/82/82 80/80/80
f 87/87/87 86/86/86 85/85/85
f 88/88/88 85/85/85 86/86/86
f 85/85/85 88/88/88 89/89/89
f 90/90/90 89/89/89 88/88/88
f 93/93/93 92/92/92 91/91/91
f 92/92/92 94/94/94 91/91/91
f 94/94/94 95/95/95 91/91/91
f 98/98/98 97/97/97 96/96/96
f 99/99/99 96/96/96 97/97/97
f 96/96/96 99/99/99 100/100/100
f 101/101/101 100/100/100 99/99/99
f 102/102/102 101/101/101 99/99/99
f 99/99/99 97/97/97 102/102/102
f 103/103/103 102/102/102 97/97/97
f 106/106/106 105/105/105 104/104/104
f 105/105/105 107/107/107 104/104/104
f 107/107/107 108/108/108 104/104/104
f 111/111/111 110/110/110 109/109/109
f 112/112/112 109/109/109 110/110/110
f 109/109/109 112/112/112 113/113/113
f 114/114/114 113/113/113 112/112/112
f 117/117/117 116/116/116 115/115/115
f 118/118/118 115/115/115 116/116/116
f 121/121/121 120/120/120 119/119/119
f 122/122/122 119/119/119 120/120/120
f 125/125/125 124/124/124 123/123/123
f 126/126/126 123/123/123 124/124/124
f 129/129/129 128/128/128 127/127/127
f 128/128/128 130/130/130 127/127/127
f 131/131/131 127/127/127 130/130/130
f 134/134/134 133/133/133 132/132/132
f 133/133/133 135/135/135 132/132/132
f 136/136/136 132/132/132 135/135/135
f 139/139/139 138/138/138 137/137/137
f 140/140/140 137/137/137 138/138/138
f 143/143/143 142/142/142 141/141/141
f 144/144/144 141/141/141 142/142/142
f 147/147/147 146/146/146 145/145/145
f 148/148/148 145/145/145 146/146/146
f 149/149/149 148/148/148 146/146/146
f 145/145/145 148/148/148 150/150/150
f 149/149/149 151/151/151 148/148/148
f 152/152/152 150/150/150 148/148/148
f 152/152/152 148/148/148 151/151/151
