g wall_demonworld_streetlamp2_light
v -0.5446908 2.334878 -0.01906001
v -0.4224114 2.296308 -0.05879107
v -0.4224114 2.296308 0.02067089
v -0.469118 2.296308 0.08495697
v -0.5446908 2.296308 0.1095121
v -0.4224114 2.195328 0.149243
v -0.5446908 2.195328 0.188974
v -0.3468386 2.195328 0.04522593
v -0.3468386 2.070511 0.04522593
v -0.4224114 2.070511 0.149243
v -0.5446908 2.070511 0.188974
v -0.4224114 1.969532 0.02067088
v -0.469118 1.969532 0.08495697
v -0.5446908 1.969532 0.1095121
v -0.5446908 1.930962 -0.01906002
v -0.4224115 1.969532 -0.05879107
v -0.3468387 2.195328 -0.08334623
v -0.3468386 2.195328 0.04522593
v -0.4224114 2.296308 -0.05879107
v -0.4224116 2.195328 -0.1873632
v -0.4691181 2.296308 -0.1230771
v -0.5446908 2.334878 -0.01906001
v -0.5446908 2.296308 -0.1476321
v -0.5446908 2.195328 -0.2270941
v -0.5446908 2.070511 -0.227094
v -0.4224116 2.070511 -0.1873632
v -0.5446908 1.969532 -0.1476321
v -0.3468387 2.070511 -0.08334623
v -0.3468386 2.195328 0.04522593
v -0.3468386 2.070511 0.04522593
v -0.4691181 1.969532 -0.1230771
v -0.5446908 1.930962 -0.01906002
v -0.4224115 1.969532 -0.05879107
v -0.4224114 1.969532 0.02067088
v -0.5446908 1.930962 -0.01906002
v -0.6669701 1.969532 -0.05879098
v -0.6669701 1.969532 0.02067094
v -0.6202635 1.969532 -0.123077
v -0.5446908 1.969532 -0.1476321
v -0.5446908 2.070511 -0.227094
v -0.6669701 2.070511 -0.187363
v -0.5446908 2.195328 -0.2270941
v -0.7425429 2.070511 -0.08334609
v -0.6669701 1.969532 0.02067094
v -0.6669701 2.195328 -0.1873631
v -0.5446908 2.296308 -0.1476321
v -0.6202636 2.296308 -0.123077
v -0.5446908 2.334878 -0.01906001
v -0.7425429 2.195328 -0.08334608
v -0.6669701 2.296308 -0.05879099
v -0.6669701 2.296308 0.02067095
v -0.7425429 2.195328 0.04522603
v -0.7425429 2.070511 0.04522602
v -0.7425429 2.070511 0.04522602
v -0.6202636 1.969532 0.08495697
v -0.5446908 1.930962 -0.01906002
v -0.5446908 1.969532 0.1095121
v -0.6669701 2.070511 0.149243
v -0.7425429 2.195328 0.04522603
v -0.5446908 2.070511 0.188974
v -0.6669701 2.195328 0.149243
v -0.6669701 2.296308 0.02067095
v -0.5446908 2.195328 0.188974
v -0.6202636 2.296308 0.08495697
v -0.5446908 2.334878 -0.01906001
v -0.5446908 2.296308 0.1095121
v 0.5837431 2.334878 -0.01906001
v 0.4614637 2.296308 0.02067089
v 0.4614637 2.296308 -0.05879107
v 0.5081702 2.296308 0.08495697
v 0.5837431 2.296308 0.1095121
v 0.4614637 2.195328 0.149243
v 0.5837431 2.195328 0.188974
v 0.385891 2.195328 0.04522593
v 0.385891 2.070511 0.04522593
v 0.4614637 2.070511 0.149243
v 0.5837431 2.070511 0.188974
v 0.4614637 1.969532 0.02067088
v 0.5081702 1.969532 0.08495697
v 0.5837431 1.969532 0.1095121
v 0.5837431 1.930962 -0.01906002
v 0.4614637 1.969532 -0.05879107
v 0.385891 2.195328 0.04522593
v 0.385891 2.195328 -0.08334623
v 0.4614637 2.296308 -0.05879107
v 0.4614638 2.195328 -0.1873632
v 0.5081704 2.296308 -0.1230771
v 0.5837431 2.334878 -0.01906001
v 0.5837431 2.296308 -0.1476321
v 0.5837431 2.195328 -0.2270941
v 0.5837431 2.070511 -0.227094
v 0.4614638 2.070511 -0.1873632
v 0.5837431 1.969532 -0.1476321
v 0.385891 2.070511 -0.08334623
v 0.385891 2.195328 0.04522593
v 0.385891 2.070511 0.04522593
v 0.5081704 1.969532 -0.1230771
v 0.5837431 1.930962 -0.01906002
v 0.4614637 1.969532 -0.05879107
v 0.4614637 1.969532 0.02067088
v 0.5837431 1.930962 -0.01906002
v 0.7060223 1.969532 0.02067094
v 0.7060223 1.969532 -0.05879098
v 0.6593158 1.969532 -0.123077
v 0.5837431 1.969532 -0.1476321
v 0.5837431 2.070511 -0.227094
v 0.7060223 2.070511 -0.187363
v 0.5837431 2.195328 -0.2270941
v 0.7815951 2.070511 -0.08334609
v 0.7060223 1.969532 0.02067094
v 0.7060225 2.195328 -0.1873631
v 0.5837431 2.296308 -0.1476321
v 0.6593158 2.296308 -0.123077
v 0.5837431 2.334878 -0.01906001
v 0.7815951 2.195328 -0.08334608
v 0.7060225 2.296308 -0.05879099
v 0.7060225 2.296308 0.02067095
v 0.7815951 2.195328 0.04522603
v 0.7815951 2.070511 0.04522602
v 0.7815951 2.070511 0.04522602
v 0.6593159 1.969532 0.08495697
v 0.5837431 1.930962 -0.01906002
v 0.5837431 1.969532 0.1095121
v 0.7060225 2.070511 0.149243
v 0.7815951 2.195328 0.04522603
v 0.5837431 2.070511 0.188974
v 0.7060225 2.195328 0.149243
v 0.7060225 2.296308 0.02067095
v 0.5837431 2.195328 0.188974
v 0.6593159 2.296308 0.08495697
v 0.5837431 2.334878 -0.01906001
v 0.5837431 2.296308 0.1095121
vt 0.9560993 0.9678295
vt 0.9566776 0.9868678
vt 0.9566776 0.9868678
vt 0.9566776 0.9832909
vt 0.9566776 0.9678295
vt 0.9581914 0.9868678
vt 0.9581914 0.9678295
vt 0.9581914 0.9926562
vt 0.9600626 0.9926562
vt 0.9600626 0.9868678
vt 0.9600626 0.9678295
vt 0.9615765 0.9868678
vt 0.9615765 0.9832909
vt 0.9615765 0.9678295
vt 0.9621547 0.9678295
vt 0.9615765 0.9868678
vt 0.9581914 0.9926562
vt 0.9581914 0.9926562
vt 0.9566776 0.9868678
vt 0.9581914 0.9868678
vt 0.9566776 0.9832909
vt 0.9560993 0.9678295
vt 0.9566776 0.9678295
vt 0.9581914 0.9678295
vt 0.9600626 0.9678295
vt 0.9600626 0.9868678
vt 0.9615765 0.9678295
vt 0.9600626 0.9926559
vt 0.9581914 0.9926562
vt 0.9600626 0.9926562
vt 0.9615765 0.9832909
vt 0.9621547 0.9678295
vt 0.9615765 0.9868678
vt 0.9615765 0.9868678
vt 0.9621547 0.9682513
vt 0.9615765 0.9870827
vt 0.9615765 0.9870827
vt 0.9615765 0.9835054
vt 0.9615765 0.9682513
vt 0.9600626 0.9682513
vt 0.9600626 0.9870827
vt 0.9581914 0.9682513
vt 0.9600626 0.9928707
vt 0.9615765 0.9870827
vt 0.9581914 0.9870827
vt 0.9566776 0.9682513
vt 0.9566776 0.9835054
vt 0.9560993 0.9682513
vt 0.9581914 0.9928707
vt 0.9566776 0.9870827
vt 0.9566776 0.9870827
vt 0.9581914 0.9928707
vt 0.9600626 0.9928707
vt 0.9600626 0.9928707
vt 0.9615765 0.9835054
vt 0.9621547 0.9682513
vt 0.9615765 0.9682513
vt 0.9600626 0.9870827
vt 0.9581914 0.9928707
vt 0.9600626 0.9682513
vt 0.9581914 0.9870827
vt 0.9566776 0.9870827
vt 0.9581914 0.9682513
vt 0.9566776 0.9835054
vt 0.9560993 0.9682513
vt 0.9566776 0.9682513
vt 0.9560993 0.9678295
vt 0.9566776 0.9868678
vt 0.9566776 0.9868678
vt 0.9566776 0.9832909
vt 0.9566776 0.9678295
vt 0.9581914 0.9868678
vt 0.9581914 0.9678295
vt 0.9581914 0.9926562
vt 0.9600626 0.9926562
vt 0.9600626 0.9868678
vt 0.9600626 0.9678295
vt 0.9615765 0.9868678
vt 0.9615765 0.9832909
vt 0.9615765 0.9678295
vt 0.9621547 0.9678295
vt 0.9615765 0.9868678
vt 0.9581914 0.9926562
vt 0.9581914 0.9926562
vt 0.9566776 0.9868678
vt 0.9581914 0.9868678
vt 0.9566776 0.9832909
vt 0.9560993 0.9678295
vt 0.9566776 0.9678295
vt 0.9581914 0.9678295
vt 0.9600626 0.9678295
vt 0.9600626 0.9868678
vt 0.9615765 0.9678295
vt 0.9600626 0.9926559
vt 0.9581914 0.9926562
vt 0.9600626 0.9926562
vt 0.9615765 0.9832909
vt 0.9621547 0.9678295
vt 0.9615765 0.9868678
vt 0.9615765 0.9868678
vt 0.9621547 0.9682513
vt 0.9615765 0.9870827
vt 0.9615765 0.9870827
vt 0.9615765 0.9835054
vt 0.9615765 0.9682513
vt 0.9600626 0.9682513
vt 0.9600626 0.9870827
vt 0.9581914 0.9682513
vt 0.9600626 0.9928707
vt 0.9615765 0.9870827
vt 0.9581914 0.9870827
vt 0.9566776 0.9682513
vt 0.9566776 0.9835054
vt 0.9560993 0.9682513
vt 0.9581914 0.9928707
vt 0.9566776 0.9870827
vt 0.9566776 0.9870827
vt 0.9581914 0.9928707
vt 0.9600626 0.9928707
vt 0.9600626 0.9928707
vt 0.9615765 0.9835054
vt 0.9621547 0.9682513
vt 0.9615765 0.9682513
vt 0.9600626 0.9870827
vt 0.9581914 0.9928707
vt 0.9600626 0.9682513
vt 0.9581914 0.9870827
vt 0.9566776 0.9870827
vt 0.9581914 0.9682513
vt 0.9566776 0.9835054
vt 0.9560993 0.9682513
vt 0.9566776 0.9682513
vn 0 1 0
vn 0.5717028 0.7991557 -0.185758
vn 0.5717031 0.7991557 0.1857573
vn 0.353332 0.7991557 0.4863196
vn 0 0.7991557 0.6011242
vn 0.5590478 0.3088568 0.7694629
vn 0 0.3088568 0.9511085
vn 0.9045581 0.3088568 0.2939083
vn 0.9045579 -0.3088573 0.2939082
vn 0.5590476 -0.3088573 0.7694628
vn 0 -0.3088572 0.9511085
vn 0.5717027 -0.799156 0.1857572
vn 0.3533318 -0.7991558 0.4863193
vn 0 -0.799156 0.6011238
vn 0 -1 0
vn 0.5717025 -0.799156 -0.1857579
vn 0.9045578 0.3088569 -0.2939095
vn 0.9045581 0.3088568 0.2939083
vn 0.5717028 0.7991557 -0.185758
vn 0.5590469 0.3088568 -0.7694635
vn 0.3533314 0.7991557 -0.4863199
vn 0 1 0
vn -1.417742E-07 0.7991558 -0.601124
vn -2.117346E-07 0.3088567 -0.9511085
vn -2.173066E-07 -0.3088573 -0.9511083
vn 0.5590469 -0.3088574 -0.7694633
vn -1.811558E-07 -0.7991558 -0.6011238
vn 0.9045575 -0.3088573 -0.2939094
vn 0.9045581 0.3088568 0.2939083
vn 0.9045579 -0.3088573 0.2939082
vn 0.3533312 -0.7991558 -0.4863197
vn 0 -1 0
vn 0.5717025 -0.799156 -0.1857579
vn 0.5717027 -0.799156 0.1857572
vn 0 -1 0
vn -0.5717027 -0.7991558 -0.1857576
vn -0.5717029 -0.7991558 0.1857575
vn -0.3533316 -0.799156 -0.4863195
vn -1.811558E-07 -0.7991558 -0.6011238
vn -2.173066E-07 -0.3088573 -0.9511083
vn -0.5590475 -0.3088574 -0.7694629
vn -2.117346E-07 0.3088567 -0.9511085
vn -0.9045578 -0.3088574 -0.2939087
vn -0.5717029 -0.7991558 0.1857575
vn -0.5590475 0.3088568 -0.7694631
vn -1.417742E-07 0.7991558 -0.601124
vn -0.3533318 0.7991557 -0.4863197
vn 0 1 0
vn -0.9045581 0.3088568 -0.2939087
vn -0.5717029 0.7991558 -0.1857575
vn -0.5717029 0.7991558 0.1857576
vn -0.9045581 0.3088568 0.2939088
vn -0.9045578 -0.3088573 0.2939087
vn -0.9045578 -0.3088573 0.2939087
vn -0.3533318 -0.7991558 0.4863193
vn 0 -1 0
vn 0 -0.799156 0.6011238
vn -0.5590476 -0.3088572 0.7694629
vn -0.9045581 0.3088568 0.2939088
vn 0 -0.3088572 0.9511085
vn -0.5590476 0.3088568 0.769463
vn -0.5717029 0.7991558 0.1857576
vn 0 0.3088568 0.9511085
vn -0.3533319 0.7991557 0.4863197
vn 0 1 0
vn 0 0.7991557 0.6011242
vn 1.046471E-07 1 0
vn -0.5717033 0.7991555 0.1857574
vn -0.5717031 0.7991555 -0.1857578
vn -0.3533321 0.7991557 0.4863196
vn 0 0.7991557 0.6011242
vn -0.559048 0.3088568 0.7694628
vn 1.114393E-07 0.3088568 0.9511085
vn -0.9045582 0.3088566 0.2939083
vn -0.9045581 -0.3088569 0.2939083
vn -0.5590479 -0.3088571 0.7694626
vn 1.002954E-07 -0.3088572 0.9511085
vn -0.5717031 -0.7991557 0.1857573
vn -0.3533319 -0.7991558 0.4863193
vn 0 -0.7991558 0.6011238
vn 2.326936E-07 -1 0
vn -0.5717029 -0.7991558 -0.1857578
vn -0.9045582 0.3088566 0.2939083
vn -0.9045579 0.3088567 -0.293909
vn -0.5717031 0.7991555 -0.1857578
vn -0.559047 0.3088567 -0.7694634
vn -0.3533314 0.7991558 -0.4863199
vn 1.046471E-07 1 0
vn 3.308064E-07 0.7991558 -0.601124
vn 4.067534E-07 0.3088567 -0.9511085
vn 4.62473E-07 -0.3088574 -0.9511083
vn -0.559047 -0.3088573 -0.7694633
vn 3.990679E-07 -0.7991558 -0.6011238
vn -0.9045578 -0.308857 -0.293909
vn -0.9045582 0.3088566 0.2939083
vn -0.9045581 -0.3088569 0.2939083
vn -0.3533312 -0.799156 -0.4863198
vn 2.326936E-07 -1 0
vn -0.5717029 -0.7991558 -0.1857578
vn -0.5717031 -0.7991557 0.1857573
vn 2.326936E-07 -1 0
vn 0.5717028 -0.7991558 0.1857572
vn 0.5717027 -0.7991558 -0.1857576
vn 0.3533318 -0.7991558 -0.4863194
vn 3.990679E-07 -0.7991558 -0.6011238
vn 4.62473E-07 -0.3088574 -0.9511083
vn 0.5590474 -0.3088574 -0.7694628
vn 4.067534E-07 0.3088567 -0.9511085
vn 0.9045578 -0.3088574 -0.2939087
vn 0.5717028 -0.7991558 0.1857572
vn 0.5590478 0.3088566 -0.7694629
vn 3.308064E-07 0.7991558 -0.601124
vn 0.3533316 0.7991558 -0.4863196
vn 1.046471E-07 1 0
vn 0.9045581 0.3088566 -0.2939087
vn 0.5717032 0.7991555 -0.1857577
vn 0.5717033 0.7991555 0.1857575
vn 0.9045581 0.3088566 0.2939085
vn 0.9045579 -0.3088572 0.2939084
vn 0.9045579 -0.3088572 0.2939084
vn 0.3533321 -0.7991558 0.4863192
vn 2.326936E-07 -1 0
vn 0 -0.7991558 0.6011238
vn 0.5590478 -0.3088572 0.7694626
vn 0.9045581 0.3088566 0.2939085
vn 1.002954E-07 -0.3088572 0.9511085
vn 0.5590478 0.3088568 0.7694629
vn 0.5717033 0.7991555 0.1857575
vn 1.114393E-07 0.3088568 0.9511085
vn 0.3533321 0.7991557 0.4863197
vn 1.046471E-07 1 0
vn 0 0.7991557 0.6011242
g wall_demonworld_streetlamp2_light_0
f 3/3/3 2/2/2 1/1/1
f 4/4/4 3/3/3 1/1/1
f 5/5/5 4/4/4 1/1/1
f 6/6/6 4/4/4 5/5/5
f 7/7/7 6/6/6 5/5/5
f 8/8/8 3/3/3 4/4/4
f 6/6/6 8/8/8 4/4/4
f 9/9/9 8/8/8 6/6/6
f 10/10/10 6/6/6 7/7/7
f 10/10/10 9/9/9 6/6/6
f 11/11/11 10/10/10 7/7/7
f 12/12/12 9/9/9 10/10/10
f 13/13/13 10/10/10 11/11/11
f 13/13/13 12/12/12 10/10/10
f 14/14/14 13/13/13 11/11/11
f 13/13/13 14/14/14 15/15/15
f 12/12/12 13/13/13 15/15/15
f 16/16/16 12/12/12 15/15/15
f 18/18/18 17/17/17 3/3/3
f 17/17/17 19/19/19 3/3/3
f 17/17/17 20/20/20 19/19/19
f 20/20/20 21/21/21 19/19/19
f 19/19/19 21/21/21 22/22/22
f 21/21/21 23/23/23 22/22/22
f 24/24/24 23/23/23 21/21/21
f 20/20/20 24/24/24 21/21/21
f 25/25/25 24/24/24 20/20/20
f 26/26/26 25/25/25 20/20/20
f 26/26/26 20/20/20 17/17/17
f 27/27/27 25/25/25 26/26/26
f 28/28/28 26/26/26 17/17/17
f 28/28/28 17/17/17 29/29/29
f 30/30/30 28/28/28 29/29/29
f 31/31/31 27/27/27 26/26/26
f 31/31/31 26/26/26 28/28/28
f 27/27/27 31/31/31 32/32/32
f 31/31/31 33/33/33 32/32/32
f 33/33/33 31/31/31 28/28/28
f 33/33/33 28/28/28 30/30/30
f 34/34/34 33/33/33 30/30/30
f 37/37/37 36/36/36 35/35/35
f 36/36/36 38/38/38 35/35/35
f 38/38/38 39/39/39 35/35/35
f 39/39/39 38/38/38 40/40/40
f 38/38/38 41/41/41 40/40/40
f 38/38/38 36/36/36 41/41/41
f 40/40/40 41/41/41 42/42/42
f 36/36/36 43/43/43 41/41/41
f 36/36/36 44/44/44 43/43/43
f 41/41/41 45/45/45 42/42/42
f 41/41/41 43/43/43 45/45/45
f 42/42/42 45/45/45 46/46/46
f 45/45/45 47/47/47 46/46/46
f 46/46/46 47/47/47 48/48/48
f 43/43/43 49/49/49 45/45/45
f 45/45/45 49/49/49 47/47/47
f 47/47/47 50/50/50 48/48/48
f 49/49/49 50/50/50 47/47/47
f 50/50/50 51/51/51 48/48/48
f 52/52/52 51/51/51 50/50/50
f 49/49/49 52/52/52 50/50/50
f 53/53/53 52/52/52 49/49/49
f 43/43/43 53/53/53 49/49/49
f 44/44/44 54/54/54 43/43/43
f 44/44/44 55/55/55 54/54/54
f 55/55/55 44/44/44 56/56/56
f 57/57/57 55/55/55 56/56/56
f 55/55/55 58/58/58 54/54/54
f 55/55/55 57/57/57 58/58/58
f 54/54/54 58/58/58 59/59/59
f 57/57/57 60/60/60 58/58/58
f 58/58/58 61/61/61 59/59/59
f 58/58/58 60/60/60 61/61/61
f 59/59/59 61/61/61 62/62/62
f 60/60/60 63/63/63 61/61/61
f 61/61/61 64/64/64 62/62/62
f 61/61/61 63/63/63 64/64/64
f 62/62/62 64/64/64 65/65/65
f 63/63/63 66/66/66 64/64/64
f 64/64/64 66/66/66 65/65/65
f 69/69/69 68/68/68 67/67/67
f 68/68/68 70/70/70 67/67/67
f 70/70/70 71/71/71 67/67/67
f 70/70/70 72/72/72 71/71/71
f 72/72/72 73/73/73 71/71/71
f 68/68/68 74/74/74 70/70/70
f 74/74/74 72/72/72 70/70/70
f 74/74/74 75/75/75 72/72/72
f 72/72/72 76/76/76 73/73/73
f 75/75/75 76/76/76 72/72/72
f 76/76/76 77/77/77 73/73/73
f 75/75/75 78/78/78 76/76/76
f 76/76/76 79/79/79 77/77/77
f 78/78/78 79/79/79 76/76/76
f 79/79/79 80/80/80 77/77/77
f 80/80/80 79/79/79 81/81/81
f 79/79/79 78/78/78 81/81/81
f 78/78/78 82/82/82 81/81/81
f 84/84/84 83/83/83 68/68/68
f 85/85/85 84/84/84 68/68/68
f 86/86/86 84/84/84 85/85/85
f 87/87/87 86/86/86 85/85/85
f 87/87/87 85/85/85 88/88/88
f 89/89/89 87/87/87 88/88/88
f 89/89/89 90/90/90 87/87/87
f 90/90/90 86/86/86 87/87/87
f 90/90/90 91/91/91 86/86/86
f 91/91/91 92/92/92 86/86/86
f 86/86/86 92/92/92 84/84/84
f 91/91/91 93/93/93 92/92/92
f 92/92/92 94/94/94 84/84/84
f 84/84/84 94/94/94 95/95/95
f 94/94/94 96/96/96 95/95/95
f 93/93/93 97/97/97 92/92/92
f 92/92/92 97/97/97 94/94/94
f 97/97/97 93/93/93 98/98/98
f 99/99/99 97/97/97 98/98/98
f 97/97/97 99/99/99 94/94/94
f 94/94/94 99/99/99 96/96/96
f 99/99/99 100/100/100 96/96/96
f 103/103/103 102/102/102 101/101/101
f 104/104/104 103/103/103 101/101/101
f 105/105/105 104/104/104 101/101/101
f 104/104/104 105/105/105 106/106/106
f 107/107/107 104/104/104 106/106/106
f 103/103/103 104/104/104 107/107/107
f 107/107/107 106/106/106 108/108/108
f 109/109/109 103/103/103 107/107/107
f 110/110/110 103/103/103 109/109/109
f 111/111/111 107/107/107 108/108/108
f 109/109/109 107/107/107 111/111/111
f 111/111/111 108/108/108 112/112/112
f 113/113/113 111/111/111 112/112/112
f 113/113/113 112/112/112 114/114/114
f 115/115/115 109/109/109 111/111/111
f 115/115/115 111/111/111 113/113/113
f 116/116/116 113/113/113 114/114/114
f 116/116/116 115/115/115 113/113/113
f 117/117/117 116/116/116 114/114/114
f 117/117/117 118/118/118 116/116/116
f 118/118/118 115/115/115 116/116/116
f 118/118/118 119/119/119 115/115/115
f 119/119/119 109/109/109 115/115/115
f 120/120/120 110/110/110 109/109/109
f 121/121/121 110/110/110 120/120/120
f 110/110/110 121/121/121 122/122/122
f 121/121/121 123/123/123 122/122/122
f 124/124/124 121/121/121 120/120/120
f 123/123/123 121/121/121 124/124/124
f 124/124/124 120/120/120 125/125/125
f 126/126/126 123/123/123 124/124/124
f 127/127/127 124/124/124 125/125/125
f 126/126/126 124/124/124 127/127/127
f 127/127/127 125/125/125 128/128/128
f 129/129/129 126/126/126 127/127/127
f 130/130/130 127/127/127 128/128/128
f 129/129/129 127/127/127 130/130/130
f 130/130/130 128/128/128 131/131/131
f 132/132/132 129/129/129 130/130/130
f 132/132/132 130/130/130 131/131/131
